<svg xmlns="http://www.w3.org/2000/svg" xmlns:xlink="http://www.w3.org/1999/xlink" viewBox="0 0 97.5 99.89"><defs><style>.cls-1{fill:url(#linear-gradient);}.cls-2{fill:url(#linear-gradient-2);}.cls-3{fill:url(#linear-gradient-3);}.cls-4{fill:url(#linear-gradient-4);}.cls-5{fill:url(#linear-gradient-5);}.cls-6{fill:url(#linear-gradient-6);}.cls-7{fill:url(#linear-gradient-7);}.cls-8{fill:url(#linear-gradient-8);}.cls-9{fill:url(#linear-gradient-9);}</style><linearGradient id="linear-gradient" y1="81.95" x2="97.5" y2="81.95" gradientUnits="userSpaceOnUse"><stop offset="0" stop-color="#220c1a"/><stop offset="0.42" stop-color="#bf1723"/><stop offset="1" stop-color="#bf1723"/></linearGradient><linearGradient id="linear-gradient-2" x1="36.52" y1="73.51" x2="113.78" y2="119.09" gradientUnits="userSpaceOnUse"><stop offset="0" stop-color="#230a0f"/><stop offset="0.1" stop-color="#450e16"/><stop offset="0.24" stop-color="#6f131e"/><stop offset="0.35" stop-color="#891723"/><stop offset="0.41" stop-color="#931825"/><stop offset="0.68" stop-color="#88171d"/><stop offset="1" stop-color="#7f1717"/></linearGradient><linearGradient id="linear-gradient-3" x1="23.96" y1="94.79" x2="101.23" y2="140.37" xlink:href="#linear-gradient-2"/><linearGradient id="linear-gradient-4" y1="81.95" x2="66.76" y2="81.95" gradientUnits="userSpaceOnUse"><stop offset="0" stop-color="#210f28"/><stop offset="0.97" stop-color="#e5232c"/></linearGradient><linearGradient id="linear-gradient-5" y1="81.95" x2="35.2" y2="81.95" gradientUnits="userSpaceOnUse"><stop offset="0" stop-color="#220c1a"/><stop offset="0.71" stop-color="#bf1723"/><stop offset="0.74" stop-color="#bf1722"/><stop offset="1" stop-color="#bf1819"/></linearGradient><linearGradient id="linear-gradient-6" x1="51.62" y1="12.51" x2="73.84" y2="97.47" gradientUnits="userSpaceOnUse"><stop offset="0" stop-color="#231772"/><stop offset="0.1" stop-color="#351b85"/><stop offset="0.4" stop-color="#6925b9"/><stop offset="0.66" stop-color="#8f2cdf"/><stop offset="0.87" stop-color="#a630f6"/><stop offset="1" stop-color="#ae32ff"/></linearGradient><linearGradient id="linear-gradient-7" x1="51.62" y1="12.51" x2="73.84" y2="97.47" gradientUnits="userSpaceOnUse"><stop offset="0" stop-color="#240a17"/><stop offset="0.32" stop-color="#560f18"/><stop offset="0.62" stop-color="#7c1219"/><stop offset="0.85" stop-color="#93141a"/><stop offset="1" stop-color="#9c151a"/></linearGradient><linearGradient id="linear-gradient-8" x1="57.04" y1="33.22" x2="73.39" y2="95.71" gradientUnits="userSpaceOnUse"><stop offset="0" stop-color="#6f0e2a"/><stop offset="1" stop-color="#e41023"/></linearGradient><linearGradient id="linear-gradient-9" x1="33.6" y1="38.14" x2="92.78" y2="38.14" gradientUnits="userSpaceOnUse"><stop offset="0" stop-color="#e41017"/><stop offset="1" stop-color="#260f0a"/></linearGradient></defs><g id="Layer_2" data-name="Layer 2"><g id="OBJECTS"><path class="cls-1" d="M46.41,91.37,61,99.89H97.5L40.23,66.48A18.05,18.05,0,0,0,15.5,73L0,99.89H30.17l2.86-5A9.78,9.78,0,0,1,46.41,91.37Z"/><path class="cls-2" d="M32.94,72.29l47.31,27.6H97.5L40.23,66.48a18,18,0,0,0-23.62,4.88A18,18,0,0,1,32.94,72.29Z"/><path class="cls-3" d="M26.29,99.89h3.88L32.39,96A9.72,9.72,0,0,0,26.29,99.89Z"/><path class="cls-4" d="M66.76,82C48.52,71.31,39.31,82,30.17,99.89H0L15.5,73a18.05,18.05,0,0,1,24.73-6.56Z"/><path class="cls-5" d="M35.2,64.48A18.07,18.07,0,0,0,15.5,73L0,99.89H8L23.52,73A18,18,0,0,1,35.2,64.48Z"/><path class="cls-6" d="M97.37,84.23,76.94,48.85,48.74,0,33.6,26.22a18.05,18.05,0,0,0,6.54,24.62Z"/><path class="cls-7" d="M97.37,84.23,76.94,48.85,48.74,0,33.6,26.22a18.05,18.05,0,0,0,6.54,24.62Z"/><path class="cls-8" d="M86.42,65.26,39.05,37.62A17.93,17.93,0,0,1,32,30a18,18,0,0,0,8.17,20.81L97.37,84.23Z"/><path class="cls-9" d="M92.78,76.27c-11-19-45.67-73.45-59.18-50L48.74,0Z"/></g></g></svg>