<!-- <?xml version="1.0" encoding="UTF-8"?> -->
<svg xmlns="http://www.w3.org/2000/svg" viewBox="0 0 1440.2 900">
    <title>mountains-original</title>
    <g id="Background">
      <g id="Layer_3" data-name="Layer 3">
        <rect x="0.2" width="1440" height="900" fill="#fff"/>
      </g>
      <path d="M0,0H1439.77V898.82s-36.75-.27-55.5-.27H0V0" transform="translate(0.2)" fill="#1b2660" fill-rule="evenodd"/>
    </g>
    <g id="as-mountains">
      <g id="ps-sun">
        <path d="M1300.27,384a92.87,92.87,0,1,1-92.87,92.87A92.87,92.87,0,0,1,1300.27,384" transform="translate(0.2)" fill="#e6e2e2" fill-rule="evenodd"/>
      </g>
      <g id="ps-cloud">
        <path d="M1439.77,732q-392.7-54.62-347.61-137.91a26.91,26.91,0,0,1,49.28,1.16,17.19,17.19,0,0,1,30.79-9.15,29.67,29.67,0,0,1,30-9.52,33.92,33.92,0,0,1,55.16-11.22,19.65,19.65,0,0,1,29-9.48,26.3,26.3,0,0,1,38.48-18.43,10.46,10.46,0,0,1,15.43-6,17.23,17.23,0,0,1,9.88-18.8,25.6,25.6,0,0,1,26.16-20.95,14.1,14.1,0,0,1,18.28-13.23,44.38,44.38,0,0,1,11.58-33.82,46.13,46.13,0,0,1,33.54-14.32c.52,201.13,0,301.7,0,301.7" transform="translate(0.2)" fill="#283561" fill-rule="evenodd"/>
        <path d="M1439.77,748.4,1310.11,626a14.44,14.44,0,0,1,24.84-6.21,15.69,15.69,0,0,1,24.92-3.56,14.13,14.13,0,0,1,13.6-15.08,15.67,15.67,0,0,1,8.28-22.36,19.52,19.52,0,0,1,22.77-18.22,14.17,14.17,0,0,1,7.11-17.55,17.07,17.07,0,0,1,9.07-16.27,18,18,0,0,1,19.07,1.72c.35,146.64,0,220,0,220" transform="translate(0.2)" fill="#4e609c" fill-rule="evenodd"/>
        <path id="leftcloud" d="M-.2,698.75q424.8,39.27,376-43c-4.89-9.41-15.51-16.86-27.07-19s-21.85,1.44-26.24,9.13c-.58-6.29-5.85-12.61-13.24-15.88s-15.38-2.82-20.06,1.14a44.56,44.56,0,0,0-32.45-14.88c-4.65-10-14.63-18.65-26.6-23s-24.37-4-33.07,1.13c-2.28-5.28-7.16-10-13.26-12.83s-12.77-3.51-18.15-1.8c-1.62-7.56-7.46-14.91-15.71-19.76s-17.89-6.61-25.92-4.74a13.55,13.55,0,0,0-6.74-7.28,14,14,0,0,0-9.95-1.35c1.54-6.45-2.87-14.08-10.69-18.5-2.49-11.37-14.54-21.57-28.3-24-.08-3.87-2.51-7.86-6.3-11C33.58,469.69-.2,478.7-.2,478.7V698.75" transform="translate(0.2)" fill="#283561" fill-rule="evenodd"/>
      </g>
      <g id="mountains">
        <g id="ps-mountain-t">
          <path d="M1288.47,625.83c37.93-.2,57,.06,57.09,0s-6.38-24.69-19.2-70.66T1340.2,575s-6-20-18-60l11,17.19-12.9-67.07,7.91,9.73-9.09-33.13,6.6,4.61-8.07-38.42q-10.12,56.48-10.12,56.48l7.27-11.15Q1301,508.93,1301,508.93l10-15.19q-14.65,49.37-14.65,49.37L1309.89,522l-19.09,64.25,15.67-31.06c-12,46.61-18,70.62-18,70.62" transform="translate(0.2)" fill="#4780c2" fill-rule="evenodd"/>
          <path d="M1353.32,712.14c37.92-.2,57,.06,57.08,0s-6.37-24.69-19.2-70.66T1405,661.29s-6-20-18-60l11,17.19s-4.3-22.36-12.91-67.07l7.92,9.73L1384,528l6.6,4.62-8.07-38.43q-10.11,56.49-10.12,56.49l7.28-11.15-13.83,55.7,10-15.19-14.64,49.37,13.56-21.09q-19.1,64.26-19.1,64.25l15.68-31.06c-12,46.61-18,70.62-18,70.62" transform="translate(0.2)" fill="#4780c2" fill-rule="evenodd"/>
          <path d="M1239.84,572.43c31-.18,46.54.05,46.59,0s-5.21-22.62-15.67-64.72l11.29,18.13-14.7-54.94,9,15.74-10.53-61.44s2.15,3,6.46,8.92t-7.42-30.35l5.38,4.23s-2.19-11.74-6.58-35.2q-8.26,51.74-8.26,51.73l5.94-10.2q-11.3,51-11.29,51l8.16-13.92q-12,45.22-12,45.23l11.07-19.32-15.59,58.85q12.8-28.46,12.8-28.45c-9.83,42.69-14.69,64.69-14.69,64.69" transform="translate(0.2)" fill="#4780c2" fill-rule="evenodd"/>
          <path d="M769.33,502.48c20.59-.1,31,0,31,0s-3.46-13.4-10.42-38.35t7.51,10.75s-3.25-10.86-9.77-32.57l6,9.33s-2.34-12.13-7-36.41l4.3,5.28s-1.65-6-4.94-18l3.58,2.5-4.38-20.86-5.49,30.66,4-6.05Q776.12,439,776.12,439l5.43-8.24-7.95,26.8L781,446.13Q770.59,481,770.6,481q8.5-16.86,8.5-16.87c-6.53,25.31-9.77,38.34-9.77,38.34" transform="translate(0.2)" fill="#1d57a4" fill-rule="evenodd"/>
          <path d="M966.16,458.35c20.59-.11,31,0,31,0s-3.46-13.41-10.43-38.36l7.52,10.75-9.78-32.56,6,9.33s-2.33-12.14-7-36.42l4.29,5.29s-1.64-6-4.94-18l3.59,2.51s-1.46-7-4.39-20.87L976.5,370.7l4-6.05L973,394.88q5.43-8.24,5.42-8.24l-8,26.8L977.79,402q-10.37,34.89-10.37,34.88L975.93,420c-6.53,25.3-9.77,38.34-9.77,38.34" transform="translate(0.2)" fill="#1d57a4" fill-rule="evenodd"/>
          <path d="M1209,528.06c19.08-.1,28.7,0,28.72,0s-3.2-12.42-9.66-35.55l7,10s-3-10.06-9.07-30.18l5.55,8.64s-2.17-11.25-6.5-33.75l4,4.9-4.58-16.67,3.32,2.32s-1.35-6.44-4.06-19.33q-5.1,28.41-5.09,28.42l3.66-5.61-7,28,5-7.65L1213,486.43l6.83-10.61-9.61,32.33,7.89-15.63C1212,516,1209,528.06,1209,528.06" transform="translate(0.2)" fill="#4780c2" fill-rule="evenodd"/>
          <path d="M832.2,835.61c13.41-.09,20.16,0,20.18,0s-1.92-10.5-5.83-30.06l4.62,8.42-5.55-25.51,3.66,7.31-3.66-28.53,2.67,4.14s-.92-4.7-2.77-14.1l2.27,2s-.77-5.45-2.33-16.35q-4.34,24-4.34,24l2.72-4.75-5.64,23.7,3.74-6.46q-5.84,21-5.84,21,5.07-9,5.08-9l-7.62,27.33q6-13.21,6-13.21c-4.89,19.82-7.32,30-7.32,30" transform="translate(0.2)" fill="#77a1c4" fill-rule="evenodd"/>
        </g>
        <g id="ps-m1">
          <polygon points="1096.91 295.25 1161.44 404.51 1190.93 446.59 1217.02 487.26 1253.32 548.04 1311.17 595.8 1335.28 729.19 1193.79 687.09 1123.77 657.2 1007.38 535.57 1048.15 443.74 1058.49 358.02 1069.71 343.86 1096.91 295.25" fill="#4780c2" fill-rule="evenodd"/>
          <path d="M1107.57,407.53l28.25,70,24.69,18.75L1216.78,562l-60.43,87.55s-79.83-31.42-77.32-33.83-50-84.54-58.33-88.22S1033,450,1038.06,452.26s69.51-44.73,69.51-44.73" transform="translate(0.2)" fill="#6299d1" fill-rule="evenodd"/>
          <polygon points="996.46 430.59 1048.27 371.19 1058.43 338.61 1096.91 295.25 1090.49 314.41 1094.92 320.09 1067.45 358.86 1087.16 342.72 1067.89 389.69 1096.25 359.19 1067.89 434.44 1107.77 407.53 1098.02 436.43 1058.59 473.57 1085.62 460.24 1075.42 486.45 1091.38 487.29 1071.88 542.44 996.46 430.59" fill="#fff" fill-rule="evenodd"/>
        </g>
        <g id="ps-m2">
          <polygon points="953.36 376.98 968.71 410.73 992.53 425.12 1069.66 532.29 1110.5 575.29 1172.89 649.51 1169.48 728.64 1121.84 759.96 1034.59 778.86 980.05 758.75 898.75 718.12 843.37 581.85 846.2 504.08 872.29 455.13 911.45 417.45 953.36 376.98" fill="#1d57a4" fill-rule="evenodd"/>
          <polygon points="939.68 531.7 997.12 631.81 1040.59 661.13 1085.07 695.5 1055.21 744.31 942.51 724.29 887.37 690.12 868.72 596.43 888.89 577.47 939.68 531.7" fill="#4780c2" fill-rule="evenodd"/>
          <polygon points="777.69 493.06 817.62 468.19 821.34 454.36 850.33 432.17 906.08 411.38 953.36 376.98 902.81 443.08 946.23 413.87 926.6 444.41 924.82 457.94 894.49 485.83 922.44 477.38 852.86 563.95 898.05 544.4 895.08 562 939.68 531.7 880.21 607.79 894.02 603.13 884.57 623.04 900.52 616.65 903.48 642.59 907.58 679.87 808.95 605.13 777.69 493.06" fill="#fff" fill-rule="evenodd"/>
        </g>
        <g id="ps-m3">
          <path d="M765.39,475.62,816,548.48l20.41,19,23.45,49.53,19.66,14.44L892.35,656l38.57,61.34-7.56,53.08-116.61-5-114-42.36s-37.58-67.65-32.4-69.74,56.94-85.69,52.82-88.94,27-55.27,27-55.27Z" transform="translate(0.2)" fill="#6299d1" fill-rule="evenodd"/>
          <polygon points="523.28 752.54 765.59 475.62 747.78 509.23 766.52 495.57 756.41 512 755.22 521.72 735 545.07 759.98 531.02 757 539.71 771.87 535.25 732.88 609.19 719.17 610.92 688.92 649.6 719.64 631.28 706.88 664.28 732.88 650.78 730.94 676.22 703.72 725.45 692.71 757.39 523.28 752.54" fill="#fff" fill-rule="evenodd"/>
          <path d="M822.85,583.79,890.6,657l16.26,15.83,50.5,51.26s-167.6,2.47-167.81-2.06-8.13-42.47-8.13-42.47l17.31-67Z" transform="translate(0.2)" fill="#7daedd" fill-rule="evenodd"/>
          <polygon points="678.46 713.71 823.04 583.79 805.5 628.96 817 623.84 818.64 636.31 804.32 662.26 821.74 651.28 829.6 674.9 811.34 694.78 834.03 681.18 858.08 719.87 678.46 713.71" fill="#fff" fill-rule="evenodd"/>
        </g>
        <g id="ps-m4">
          <polygon points="1211.59 536.28 1279.59 625.82 1306.55 645.43 1320.82 679.1 1372.36 743.51 1423.9 801.59 1179.67 785.08 1123.37 743.27 1143.99 680.7 1182.05 600.76 1187.37 576.82 1211.59 536.28" fill="#7daedd" fill-rule="evenodd"/>
          <polygon points="995.33 776.8 1211.59 536.28 1194.74 574.57 1216.15 568.37 1194.74 595.19 1189.19 618.53 1212.18 594.22 1184.43 655.42 1209.81 641.6 1187.6 681.05 1157.47 711.13 1209.81 676.49 1177.3 738.89 1203.46 724.35 1171.74 782.06 995.33 776.8" fill="#fff" fill-rule="evenodd"/>
        </g>
        <g id="ps-m5">
          <polygon points="1042.61 692.61 1078.83 732.44 1102.06 746.41 1114.64 770.65 1036.11 766.52 972.89 747.66 980.1 728.35 1011.17 709.1 1042.61 692.61" fill="#7daedd" fill-rule="evenodd"/>
          <polygon points="839.33 755.59 966.99 701.87 978.8 709.92 1024.3 694.09 1042.61 692.61 995.94 724.29 1017.8 725.47 1007.39 735.64 1021.93 749.43 1036.11 766.52 839.33 755.59" fill="#fff" fill-rule="evenodd"/>
        </g>
      </g>
      <g id="ps-ground">
        <path d="M1261.75,783.38Q1155.58,898.64,1002,874.84L382.4,617.43q513.44,144.57,879.35,166" transform="translate(0.2)" fill="#a2c3e3" fill-rule="evenodd"/>
        <path d="M809.31,790.26Q1048.62,910.61,1173,823,893.12,807.13,600,718.94l209.31,71.32" transform="translate(0.2)" fill="#699aca" fill-rule="evenodd"/>
        <path d="M.25,617c615.3,136.27,968.61,204.4,968.61,204.4L490,649.63C334.67,593,141,582.1.25,617" transform="translate(0.2)" fill="#ebf2f5" fill-rule="evenodd"/>
        <path d="M1039.58,844,468,661.14c-37.58-12.69-76.53-24.33-117.19-33.57a6.85,6.85,0,0,1-5.14,1.94,11.88,11.88,0,0,1-2.92-.31h-1a25.88,25.88,0,0,1-3-.31,22.78,22.78,0,0,1-2.34,0l-3-.31h0l-2.95-.31a8,8,0,0,1-1.93-.43l-2.1-.75a9.55,9.55,0,0,1-1.92-.22l-1.29-.09a8.79,8.79,0,0,1-2.69-.36L318.3,626a84.45,84.45,0,0,0-3.44-.65,2.41,2.41,0,0,0-1.17-.18,10,10,0,0,1-3-.5l-1.37-.12H297.45a7.5,7.5,0,0,1-.82,0l-3-.27h-3.52a26.09,26.09,0,0,1-3-.31h-2.87c-.27,0-.55,0-.82,0l-6.89-.62-.58-.07-3.65-.57-3.15-.29a8.48,8.48,0,0,1-1-.15l-2.46-.51-2.92-.26a15.64,15.64,0,0,1-3.38-.85l-.65-.14c-1.57-.16-3-.32-4.59-.52h-1.39a11.53,11.53,0,0,1-4.59-1.12c-.7-.08-1.49-.16-2.17-.3l-2.52-.52-2.5-.27c-.22,0-.43-.05-.64-.09l-3.06-.55-3.06-.27c-.26,0-.52-.06-.77-.1l-3.13-.56-2.63-.28a8.48,8.48,0,0,1-.88-.13l-2.52-.53-2.5-.26a8.08,8.08,0,0,1-.88-.14l-2.06-.43h-7.92a11.86,11.86,0,0,1-4-.82l-1.35-.21a17.28,17.28,0,0,1-2.38-.65l-5-.53c-.7-.07-1.44-.21-2.13-.32l-2.74-.25a22,22,0,0,1-2.7-.07l-2.21-.28-3.86-.26h-6.07l-.58,0-4.63-.29H154.24l-5.43.56a8.29,8.29,0,0,1-4.82-.87l-26.38.35a17.86,17.86,0,0,1-4.69.88h-8a10.45,10.45,0,0,1-3.11.31c-2.51.4-5,.72-7.57,1.11l-6.8,1.22-.34,0-4.43.62-.43.05-2.93.26-2.46.52-.53.09-76.08.92c-.82.12.82.1,0,.1v.23c-.88.28,1,.4,0,.55v.57c-.62.13.64.19,0,.19-.81.17.8.38,0,.51v.62c-.2,0,.19.05,0,.07v1.7c-.19,0,.19.07,0,.1v4.19c-.15,0,.14.06,0,.08v2.6c-.18.05.17.09,0,.13V698c687.16,132.38,1043,180.48,1039.33,146" transform="translate(0.2)" fill="#cfe2f4" fill-rule="evenodd"/>
        <path d="M.25,711.3c624.1,83.1,937.59,120.56,938,112.38L435.67,681.42C266.52,629.36,124.91,646.14.25,679.08V711.3" transform="translate(0.2)" fill="#699aca" fill-rule="evenodd"/>
        <path d="M698.15,734q158.63,67,178,48L608.5,691.4,698.15,734" transform="translate(0.2)" fill="#d4e2e7" fill-rule="evenodd"/>
        <path d="M982.89,863.53q65.67-5.24,73.27-14.9L359.72,701.29C249.19,676.72,76.33,681.7.25,696.45,610.69,806.29,981,862,982.89,863.53" transform="translate(0.2)" fill="#a2c3e3" fill-rule="evenodd"/>
        <path d="M1093.1,841.9q-11.43,23.13-14.59,18.81L519.13,697A441.85,441.85,0,0,1,640.6,714.28L1093.1,841.9" transform="translate(0.2)" fill="#fff" fill-rule="evenodd"/>
        <path d="M1092.1,898.53l52-21.63L267.14,722C177.31,707.29,88.28,690.61.25,698v49.16C727.32,848.06,1092.1,898.53,1092.1,898.53" transform="translate(0.2)" fill="#ebf2f5" fill-rule="evenodd"/>
        <path d="M1153.75,898.51l-316.84.1S557.19,863.21.25,792.42V735.89c73.66-1,159,15.22,266.44,30.19l887.06,132.43" transform="translate(0.2)" fill="#d4e2e7" fill-rule="evenodd"/>
        <path d="M600.35,838.21l104,37.27S468.83,847.79.25,792.42V776.09s200.86,20.71,600.1,62.12" transform="translate(0.2)" fill="#ebf2f5" fill-rule="evenodd"/>
        <path d="M1111,878.75q15.62,22.15,18.36,19.86-.5-.29-143.65,0l-83.36-30.43L761.32,815.31l244.4,38.36L1111,878.75" transform="translate(0.2)" fill="#77a1c4" fill-rule="evenodd"/>
        <path d="M985.75,898.61,579.88,804.84l536,89.42-130.12,4.35" transform="translate(0.2)" fill="#fff" fill-rule="evenodd"/>
        <path d="M443.89,898.61H949.74C658,866.05,340.67,827.28.25,782.27v33.37c294.93,55.31,443.64,83,443.64,83" transform="translate(0.2)" fill="#6d9fce" fill-rule="evenodd"/>
        <path d="M1036.76,893.35l4.88,5.26H949.08L652.89,827.84,805.38,850l231.38,43.35" transform="translate(0.2)" fill="#96b9d8" fill-rule="evenodd"/>
        <path d="M.25,898.61H562.42C327.43,872.17,139.2,852.09.25,838.36v23.52" transform="translate(0.2)" fill="#1e407a" fill-rule="evenodd"/>
        <path d="M767.8,870.17c2.42.56,4.17,1.87,3.93,2.93s-2.4,1.48-4.81.93-4.17-1.87-3.93-2.93,2.4-1.48,4.81-.93" transform="translate(0.2)" fill="#ebf2f5" fill-rule="evenodd"/>
        <path d="M701.58,838.73Q761,844.67,848.87,853C473.57,795.84,141,758,.25,739.5c0,0,283.45,33.08,701.33,99.23" transform="translate(0.2)" fill="#fff" fill-rule="evenodd"/>
        <path d="M468,661.14l424,135.67-431.32-130c-160.8-51-315.13-60.52-460.48-28.72V625.75C156.43,591.91,301.83,604,468,661.14" transform="translate(0.2)" fill="#fff" fill-rule="evenodd"/>
      </g>
      <g id="ps-snow">
        <path d="M891.1,841.26c2.41.56,4.16,1.87,3.92,2.94s-2.4,1.48-4.81.92-4.17-1.87-3.92-2.93,2.39-1.48,4.81-.93" transform="translate(0.2)" fill="#ebf2f5" fill-rule="evenodd"/>
        <path d="M938.53,819.73c2.41.56,4.17,1.87,3.92,2.94s-2.4,1.48-4.81.92-4.17-1.86-3.92-2.93,2.39-1.48,4.81-.93" transform="translate(0.2)" fill="#fff" fill-rule="evenodd"/>
        <path d="M899.8,780.09c2.42.56,4.17,1.87,3.93,2.94s-2.4,1.48-4.81.92-4.17-1.86-3.93-2.93,2.4-1.48,4.81-.93" transform="translate(0.2)" fill="#fff" fill-rule="evenodd"/>
        <path d="M788.47,726.85c4.38,1,7.58,3.39,7.13,5.32s-4.36,2.69-8.74,1.69-7.57-3.39-7.13-5.33,4.36-2.69,8.74-1.68" transform="translate(0.2)" fill="#fff" fill-rule="evenodd"/>
        <path d="M778.36,658.44c2.49,1.06,4.13,2.81,3.66,3.9s-2.86,1.14-5.35.08-4.13-2.81-3.66-3.9,2.86-1.14,5.35-.08" transform="translate(0.2)" fill="#fff" fill-rule="evenodd"/>
        <path d="M956,787.35c2.41.55,4.17,1.86,3.92,2.93s-2.4,1.48-4.81.93-4.17-1.87-3.92-2.93,2.39-1.49,4.81-.93" transform="translate(0.2)" fill="#ebf2f5" fill-rule="evenodd"/>
        <path d="M1003.76,798.78c2.41.55,4.17,1.87,3.92,2.93s-2.4,1.48-4.81.93-4.17-1.87-3.92-2.93,2.4-1.48,4.81-.93" transform="translate(0.2)" fill="#ebf2f5" fill-rule="evenodd"/>
        <path d="M1250.32,750.11c2.41.56,4.17,1.87,3.92,2.93s-2.4,1.48-4.81.93-4.17-1.87-3.92-2.93,2.4-1.48,4.81-.93" transform="translate(0.2)" fill="#ebf2f5" fill-rule="evenodd"/>
        <path d="M1320.49,768.51c2.41.56,4.17,1.87,3.92,2.93s-2.4,1.48-4.81.93-4.17-1.87-3.92-2.93,2.4-1.48,4.81-.93" transform="translate(0.2)" fill="#ebf2f5" fill-rule="evenodd"/>
        <path d="M1303.7,729.46c2.12.49,3.66,1.64,3.44,2.57s-2.1,1.3-4.21.82-3.65-1.64-3.44-2.57,2.1-1.3,4.21-.82" transform="translate(0.2)" fill="#ebf2f5" fill-rule="evenodd"/>
        <path d="M1300.5,766.12c2.11.48,3.65,1.63,3.43,2.57s-2.1,1.29-4.21.81-3.65-1.64-3.44-2.57,2.1-1.3,4.22-.81" transform="translate(0.2)" fill="#ebf2f5" fill-rule="evenodd"/>
        <path d="M1331.22,752.26c2.12.49,3.66,1.64,3.44,2.57s-2.1,1.3-4.21.81-3.65-1.63-3.44-2.57,2.1-1.29,4.21-.81" transform="translate(0.2)" fill="#ebf2f5" fill-rule="evenodd"/>
        <path d="M1298.93,715c2.12.49,3.66,1.64,3.44,2.57s-2.1,1.3-4.21.81-3.65-1.63-3.44-2.57,2.1-1.29,4.21-.81" transform="translate(0.2)" fill="#ebf2f5" fill-rule="evenodd"/>
        <path d="M1393.54,732.59c2.12.48,3.66,1.63,3.44,2.57s-2.1,1.29-4.21.81-3.65-1.64-3.44-2.57,2.1-1.3,4.21-.81" transform="translate(0.2)" fill="#ebf2f5" fill-rule="evenodd"/>
        <path d="M1398.56,777.06c2.11.48,3.65,1.63,3.44,2.56s-2.1,1.3-4.21.82-3.66-1.64-3.44-2.57,2.1-1.3,4.21-.81" transform="translate(0.2)" fill="#ebf2f5" fill-rule="evenodd"/>
        <path d="M1262.83,695.45c1.54.36,2.66,1.19,2.5,1.87s-1.53.94-3.06.59-2.65-1.19-2.5-1.87,1.53-.94,3.06-.59" transform="translate(0.2)" fill="#ebf2f5" fill-rule="evenodd"/>
        <path d="M1292.67,677.75c1.54.35,2.65,1.19,2.5,1.87s-1.53.94-3.06.59-2.66-1.19-2.5-1.87,1.53-.94,3.06-.59" transform="translate(0.2)" fill="#ebf2f5" fill-rule="evenodd"/>
        <path d="M1198.6,703.08c1.53.35,2.65,1.19,2.49,1.86s-1.52.95-3.06.59-2.65-1.18-2.49-1.86,1.52-.94,3.06-.59" transform="translate(0.2)" fill="#ebf2f5" fill-rule="evenodd"/>
        <path d="M1238.51,734.9c1.54.35,2.66,1.18,2.5,1.86s-1.53.94-3.06.59-2.65-1.19-2.5-1.86,1.53-1,3.06-.59" transform="translate(0.2)" fill="#ebf2f5" fill-rule="evenodd"/>
        <path d="M1312,613.54c1.53.36,2.65,1.19,2.49,1.87s-1.52.94-3.06.59-2.65-1.19-2.49-1.87,1.52-.94,3.06-.59" transform="translate(0.2)" fill="#ebf2f5" fill-rule="evenodd"/>
        <path d="M1310,658.32c1.53.35,2.65,1.19,2.49,1.86s-1.52,1-3.06.59-2.65-1.18-2.5-1.86,1.53-.94,3.07-.59" transform="translate(0.2)" fill="#ebf2f5" fill-rule="evenodd"/>
        <path d="M1269,657.7c1.53.36,2.65,1.19,2.5,1.87s-1.53.94-3.06.59-2.66-1.19-2.5-1.87,1.52-.94,3.06-.59" transform="translate(0.2)" fill="#ebf2f5" fill-rule="evenodd"/>
        <path d="M1351,689.41c1.54.36,2.65,1.19,2.5,1.87s-1.53.94-3.06.59-2.66-1.19-2.5-1.87,1.53-.94,3.06-.59" transform="translate(0.2)" fill="#ebf2f5" fill-rule="evenodd"/>
        <path d="M1328.17,694.83c1.53.36,2.65,1.19,2.49,1.87s-1.52.94-3.06.59-2.65-1.19-2.5-1.87,1.53-.94,3.07-.59" transform="translate(0.2)" fill="#ebf2f5" fill-rule="evenodd"/>
        <path d="M1404,716c1.53.35,2.65,1.19,2.5,1.86s-1.53,1-3.07.59-2.65-1.18-2.49-1.86,1.52-1,3.06-.59" transform="translate(0.2)" fill="#ebf2f5" fill-rule="evenodd"/>
        <path d="M1279.29,627.45c1.54.36,2.66,1.19,2.5,1.87s-1.53.94-3.06.59-2.66-1.19-2.5-1.87,1.53-.94,3.06-.59" transform="translate(0.2)" fill="#ebf2f5" fill-rule="evenodd"/>
        <path d="M1246,644.07c1.53.36,2.65,1.19,2.49,1.87s-1.52.94-3.06.59-2.65-1.19-2.49-1.87,1.52-.94,3.06-.59" transform="translate(0.2)" fill="#ebf2f5" fill-rule="evenodd"/>
        <path d="M1230.53,668.9c1.53.35,2.65,1.19,2.5,1.87s-1.53.94-3.06.59-2.66-1.19-2.5-1.87,1.52-.94,3.06-.59" transform="translate(0.2)" fill="#ebf2f5" fill-rule="evenodd"/>
        <path d="M1199.53,741.48c1.54.35,2.65,1.19,2.5,1.87s-1.53.94-3.06.59-2.66-1.19-2.5-1.87,1.53-.94,3.06-.59" transform="translate(0.2)" fill="#ebf2f5" fill-rule="evenodd"/>
        <path d="M1251.59,737.6c1.54.35,2.65,1.19,2.5,1.87s-1.53.94-3.06.59-2.66-1.19-2.5-1.87,1.53-.94,3.06-.59" transform="translate(0.2)" fill="#ebf2f5" fill-rule="evenodd"/>
        <path d="M1288.59,754.73c1.54.36,2.65,1.19,2.5,1.87s-1.53.94-3.06.59-2.66-1.19-2.5-1.87,1.52-.94,3.06-.59" transform="translate(0.2)" fill="#ebf2f5" fill-rule="evenodd"/>
        <path d="M1209.14,782.91c2.11.49,3.65,1.64,3.44,2.57s-2.1,1.3-4.22.81-3.65-1.63-3.43-2.57,2.1-1.3,4.21-.81" transform="translate(0.2)" fill="#ebf2f5" fill-rule="evenodd"/>
        <path d="M1186.52,776.58c2.11.49,3.65,1.64,3.44,2.57s-2.1,1.3-4.22.81-3.65-1.63-3.43-2.57,2.1-1.29,4.21-.81" transform="translate(0.2)" fill="#ebf2f5" fill-rule="evenodd"/>
        <path d="M1217.1,812.57c2.12.49,3.65,1.64,3.44,2.57s-2.1,1.3-4.21.81-3.66-1.63-3.44-2.57,2.1-1.29,4.21-.81" transform="translate(0.2)" fill="#ebf2f5" fill-rule="evenodd"/>
        <path d="M1291.58,815.52c2.12.48,3.66,1.63,3.44,2.56s-2.1,1.3-4.21.82-3.65-1.64-3.44-2.57,2.1-1.3,4.21-.81" transform="translate(0.2)" fill="#ebf2f5" fill-rule="evenodd"/>
        <path d="M1377.17,786.75c2.42.55,4.17,1.86,3.93,2.93s-2.4,1.48-4.81.92-4.17-1.86-3.93-2.93,2.4-1.48,4.81-.92" transform="translate(0.2)" fill="#ebf2f5" fill-rule="evenodd"/>
        <path d="M1318.32,805.77c2.42.55,4.17,1.87,3.93,2.93s-2.4,1.48-4.81.93-4.17-1.87-3.93-2.93,2.4-1.48,4.81-.93" transform="translate(0.2)" fill="#ebf2f5" fill-rule="evenodd"/>
        <path d="M1305.86,853.76c2.42.56,4.17,1.87,3.93,2.93s-2.4,1.48-4.81.93-4.17-1.87-3.93-2.93,2.4-1.48,4.81-.93" transform="translate(0.2)" fill="#ebf2f5" fill-rule="evenodd"/>
        <path d="M1281.57,598.31c1.53.35,2.65,1.19,2.5,1.87s-1.53.94-3.06.59-2.66-1.19-2.5-1.87,1.52-.94,3.06-.59" transform="translate(0.2)" fill="#ebf2f5" fill-rule="evenodd"/>
        <path d="M1290.17,617.58c1.54.35,2.66,1.19,2.5,1.87s-1.53.94-3.06.59-2.65-1.19-2.5-1.87,1.53-.94,3.06-.59" transform="translate(0.2)" fill="#ebf2f5" fill-rule="evenodd"/>
        <path d="M1312.78,632.14c1.53.35,2.65,1.19,2.49,1.87s-1.52.94-3.06.59-2.65-1.19-2.49-1.87,1.52-.94,3.06-.59" transform="translate(0.2)" fill="#ebf2f5" fill-rule="evenodd"/>
        <path d="M1340.05,652.81c1.54.35,2.66,1.19,2.5,1.87s-1.53.94-3.06.59-2.65-1.19-2.5-1.87,1.53-.94,3.06-.59" transform="translate(0.2)" fill="#ebf2f5" fill-rule="evenodd"/>
        <path d="M1369.25,663.35c1.54.36,2.66,1.19,2.5,1.87s-1.53.94-3.06.59-2.65-1.19-2.5-1.87,1.53-.94,3.06-.59" transform="translate(0.2)" fill="#ebf2f5" fill-rule="evenodd"/>
        <path d="M1124.62,854.49c2-.82,3.93-.77,4.29.12s-1,2.27-3,3.09-3.92.77-4.29-.11,1-2.27,3-3.1" transform="translate(0.2)" fill="#ebf2f5" fill-rule="evenodd"/>
        <path d="M1149.55,838.26c2-.82,3.92-.77,4.29.11s-1,2.28-3,3.1-3.93.77-4.29-.12,1-2.27,3-3.09" transform="translate(0.2)" fill="#ebf2f5" fill-rule="evenodd"/>
        <path d="M1169,865.31c2-.82,3.92-.77,4.29.12s-1,2.27-3,3.09-3.93.77-4.29-.11,1-2.28,3-3.1" transform="translate(0.2)" fill="#ebf2f5" fill-rule="evenodd"/>
        <path d="M1173.62,833.56c2-.82,3.93-.77,4.29.11s-1,2.27-3,3.1-3.92.77-4.28-.12,1-2.27,3-3.09" transform="translate(0.2)" fill="#ebf2f5" fill-rule="evenodd"/>
        <path d="M1083.51,861.57c2-.82,3.92-.77,4.29.11s-1,2.28-3,3.1-3.92.77-4.29-.12,1-2.27,3-3.09" transform="translate(0.2)" fill="#ebf2f5" fill-rule="evenodd"/>
        <path d="M1055.52,864.08c2-.82,3.93-.77,4.29.12s-1,2.27-3,3.09-3.93.77-4.29-.12,1-2.27,3-3.09" transform="translate(0.2)" fill="#ebf2f5" fill-rule="evenodd"/>
        <path d="M1308.67,579.31c1.53.35,2.65,1.18,2.49,1.86s-1.52.94-3.06.59-2.65-1.19-2.5-1.86,1.53-.95,3.07-.59" transform="translate(0.2)" fill="#ebf2f5" fill-rule="evenodd"/>
        <path d="M1267,571.13c1.54.35,2.66,1.19,2.5,1.87s-1.53.94-3.06.59-2.65-1.19-2.5-1.87,1.53-.94,3.06-.59" transform="translate(0.2)" fill="#ebf2f5" fill-rule="evenodd"/>
        <path d="M1351.2,606.12c1.53.35,2.65,1.18,2.49,1.86s-1.52.94-3.06.59-2.65-1.19-2.5-1.86,1.53-1,3.07-.59" transform="translate(0.2)" fill="#ebf2f5" fill-rule="evenodd"/>
        <path d="M1223.89,564.92c1.53.35,2.65,1.19,2.49,1.87s-1.52.94-3.06.59-2.65-1.19-2.5-1.87,1.53-.94,3.07-.59" transform="translate(0.2)" fill="#ebf2f5" fill-rule="evenodd"/>
        <path d="M1374.54,643.73c1.54.35,2.66,1.18,2.5,1.86s-1.53.94-3.06.59-2.65-1.19-2.5-1.87,1.53-.94,3.06-.58" transform="translate(0.2)" fill="#ebf2f5" fill-rule="evenodd"/>
        <path d="M1394.66,682.39c1.53.35,2.65,1.19,2.49,1.87s-1.52.94-3.06.59-2.65-1.19-2.5-1.87,1.53-.94,3.07-.59" transform="translate(0.2)" fill="#ebf2f5" fill-rule="evenodd"/>
        <g id="sky-snow">
          <path d="M805.59,212.28a3.32,3.32,0,1,1-3.32,3.32,3.32,3.32,0,0,1,3.32-3.32" transform="translate(0.2)" fill="#fff" fill-rule="evenodd"/>
          <path d="M897.18,237a2.59,2.59,0,1,1-2.59,2.59,2.59,2.59,0,0,1,2.59-2.59" transform="translate(0.2)" fill="#fff" fill-rule="evenodd"/>
          <path d="M949.25,201.25a3.32,3.32,0,1,1-3.32,3.32,3.32,3.32,0,0,1,3.32-3.32" transform="translate(0.2)" fill="#fff" fill-rule="evenodd"/>
          <path d="M779,311.36a3.32,3.32,0,1,1-3.31,3.31,3.31,3.31,0,0,1,3.31-3.31" transform="translate(0.2)" fill="#fff" fill-rule="evenodd"/>
          <path d="M995.63,264.22a3.32,3.32,0,1,1-3.31,3.31,3.32,3.32,0,0,1,3.31-3.31" transform="translate(0.2)" fill="#fff" fill-rule="evenodd"/>
          <path d="M1134.47,258.33a3.32,3.32,0,1,1-3.31,3.32,3.32,3.32,0,0,1,3.31-3.32" transform="translate(0.2)" fill="#fff" fill-rule="evenodd"/>
          <path d="M1048.36,223.06a2.59,2.59,0,1,1-2.59,2.59,2.59,2.59,0,0,1,2.59-2.59" transform="translate(0.2)" fill="#fff" fill-rule="evenodd"/>
          <path d="M1205.8,289.91a2.65,2.65,0,1,0,3.19,2.59,2.94,2.94,0,0,0-3.19-2.59" transform="translate(0.2)" fill="#fff" fill-rule="evenodd"/>
          <path d="M1290.8,220.91a2.65,2.65,0,1,0,3.19,2.59,2.94,2.94,0,0,0-3.19-2.59" transform="translate(0.2)" fill="#fff" fill-rule="evenodd"/>
          <path d="M1173.7,221.77a2.65,2.65,0,1,0,3.19,2.6,2.94,2.94,0,0,0-3.19-2.6" transform="translate(0.2)" fill="#fff" fill-rule="evenodd"/>
          <path d="M926.21,306.64a2.08,2.08,0,1,1-2.07,2.08,2.08,2.08,0,0,1,2.07-2.08" transform="translate(0.2)" fill="#fff" fill-rule="evenodd"/>
          <path d="M867.08,293.49a2.08,2.08,0,1,1-2.08,2.08,2.08,2.08,0,0,1,2.08-2.08" transform="translate(0.2)" fill="#fff" fill-rule="evenodd"/>
          <path d="M848.59,358.56a2.08,2.08,0,1,1-2.08,2.07,2.08,2.08,0,0,1,2.08-2.07" transform="translate(0.2)" fill="#fff" fill-rule="evenodd"/>
          <path d="M1047.06,288.35a2.08,2.08,0,1,1-2.08,2.07,2.07,2.07,0,0,1,2.08-2.07" transform="translate(0.2)" fill="#fff" fill-rule="evenodd"/>
          <path d="M1198.75,332.05a2.08,2.08,0,1,1-2.08,2.08,2.08,2.08,0,0,1,2.08-2.08" transform="translate(0.2)" fill="#fff" fill-rule="evenodd"/>
          <path d="M1279.74,294.77a2.08,2.08,0,1,1-2.08,2.08,2.08,2.08,0,0,1,2.08-2.08" transform="translate(0.2)" fill="#fff" fill-rule="evenodd"/>
          <path d="M1384.41,217.2a3.31,3.31,0,1,1-3.31,3.31,3.32,3.32,0,0,1,3.31-3.31" transform="translate(0.2)" fill="#fff" fill-rule="evenodd"/>
        </g>
      </g>
      <g id="ps-ground-t">
        <path d="M1146.68,587.49a19.83,19.83,0,0,1-3.14,6.37,15.12,15.12,0,0,0,6.15-4.72l-1.27,8.05-.06-.14q-6.49,12-15.81,13.08a18.5,18.5,0,0,0,8.86.39,10.22,10.22,0,0,1-6.44,4.93c2.1,1,4.52.89,7.27-.31a24.12,24.12,0,0,1-3.77,7.66,17.72,17.72,0,0,0,6.67-4.85l-1.32,8.36q-7.12,12.95-17.34,14.17a20.53,20.53,0,0,0,9.82.44,11.3,11.3,0,0,1-7.13,5.46q3.48,1.65,8-.34a26.26,26.26,0,0,1-4.17,8.47,19.28,19.28,0,0,0,7.12-5.06l-1.15,7.29q-8,14.13-19.32,15.49a23.43,23.43,0,0,0,11.12.49,12.86,12.86,0,0,1-8.08,6.18q3.94,1.88,9.11-.39a30.11,30.11,0,0,1-4.72,9.59,21.72,21.72,0,0,0,7.77-5.42l-1.61,10.1q-9.26,16.94-22.53,18.53a26.61,26.61,0,0,0,12.7.56,14.64,14.64,0,0,1-9.22,7.06q4.5,2.15,10.4-.44a34.39,34.39,0,0,1-5.4,11,25.16,25.16,0,0,0,9.26-6.6l-1.77,11q-10.29,18.81-25.06,20.58a29.74,29.74,0,0,0,14.15.63,16.33,16.33,0,0,1-10.27,7.86q5,2.38,11.58-.49a38.37,38.37,0,0,1-6,12.2,27.83,27.83,0,0,0,10.24-7.28l-1.14,7.14q-12.2,21.83-29.55,23.9,7.33,2.36,16.88.75-3.78,6.9-12.26,9.38,6,2.85,13.83-.58a45.86,45.86,0,0,1-7.17,14.57,33.21,33.21,0,0,0,11.86-8.31q-1,6-1.86,11.5-13.5,23.22-32.5,25.5,8.28,2.67,19,.84-4.26,7.8-13.83,10.59,6.75,3.21,15.6-.66a51.68,51.68,0,0,1-8.09,16.44,37,37,0,0,0,12.58-8.53q-4.71,28.7-4.73,28.69h3.92l5-33.49a60.66,60.66,0,0,0,3.94-5.84q4.29,5.6,15.17,17.6a85.22,85.22,0,0,1-4.49-15,92,92,0,0,0,13.86,6.89q-10.2-11.38-20.88-29.34a57.35,57.35,0,0,0,12.45,8.37A113.53,113.53,0,0,1,1114.7,826l2.32-15.61a57,57,0,0,0,3.24-4.86q3.79,5,13.45,15.61a75.76,75.76,0,0,1-4-13.31A82.16,82.16,0,0,0,1142,814a167.41,167.41,0,0,1-18.5-26,50.19,50.19,0,0,0,11,7.42,101.52,101.52,0,0,1-12.47-19l1.78-12a45.26,45.26,0,0,0,2.62-3.92q3.18,4.15,11.26,13.07a64,64,0,0,1-3.34-11.15,68.91,68.91,0,0,0,10.29,5.12,140.32,140.32,0,0,1-15.49-21.78,42.33,42.33,0,0,0,9.23,6.21A85,85,0,0,1,1128,736.15l2.3-15.5a43.82,43.82,0,0,0,2.69-4q2.85,3.74,10.11,11.74a57.88,57.88,0,0,1-3-10,62.39,62.39,0,0,0,9.25,4.59,126.42,126.42,0,0,1-13.92-19.56,38.08,38.08,0,0,0,8.29,5.58,76,76,0,0,1-9.53-14.6l2-13.19a35.06,35.06,0,0,0,3-4.3q2.5,3.27,8.86,10.27a49.8,49.8,0,0,1-2.63-8.76,54.06,54.06,0,0,0,8.09,4,109.74,109.74,0,0,1-12.18-17.13,32.76,32.76,0,0,0,7.26,4.89,63.58,63.58,0,0,1-8.75-13.65l1.2-8.12a31.24,31.24,0,0,0,2.67-3.81q2.21,2.88,7.82,9.07a44.3,44.3,0,0,1-2.32-7.73,48.78,48.78,0,0,0,7.15,3.55,97.53,97.53,0,0,1-10.76-15.13,29.3,29.3,0,0,0,6.41,4.32,56.29,56.29,0,0,1-7.73-12.07l1.37-9.27a27,27,0,0,0,2.45-3.5q2,2.61,7.07,8.2a40.62,40.62,0,0,1-2.1-7,43.37,43.37,0,0,0,6.46,3.21,87.82,87.82,0,0,1-9.72-13.66,26.86,26.86,0,0,0,5.79,3.89,50.51,50.51,0,0,1-7-11l1.28-8.64a23.64,23.64,0,0,0,1.71-2.49c1.1,1.45,3.07,3.72,5.88,6.83a32.66,32.66,0,0,1-1.74-5.83,35.16,35.16,0,0,0,5.38,2.68,73.58,73.58,0,0,1-8.1-11.39,22.09,22.09,0,0,0,4.82,3.25,41.32,41.32,0,0,1-6-9.57q-5.41,10-13.18,10.91a15.52,15.52,0,0,0,7.39.33,8.56,8.56,0,0,1-5.37,4.1,7.07,7.07,0,0,0,6-.25" transform="translate(0.2)" fill="#4167b0" fill-rule="evenodd"/>
        <path d="M1035.2,898.61c22.48-.1,33.8,0,33.83,0s-3.64-12.87-11-36.85l8.1,10.33-10.35-31.28s2.15,3,6.44,9t-7.28-35l4.64,5.07s-1.74-5.76-5.21-17.28l3.88,2.41s-1.52-6.68-4.57-20l-6.3,29.46,4.37-5.82-8.5,29,6-7.92-9,25.75,8.15-11L1036.8,878q9.45-16.2,9.46-16.2c-7.39,24.31-11.06,36.83-11.06,36.83" transform="translate(0.2)" fill="#253a76" fill-rule="evenodd"/>
        <path d="M1385.9,860.82c25.38-.11,43.7-.07,53.87,0v-39.4c-2.33-8.82-5.57-19.06-8.7-30.67l8.7,11.42V788.77l-11.63-37.92,11.63,17-11.61-66.55,8.39,9.66-8.7-32.88,7.14,4.58-7.34-38.13-13.66,56,8.56-11-17.75,55.26,11.77-15.07-18.4,49,16-20.93-24,63.75,18.76-30.82c-15.38,46.25-23,70.07-23,70.07" transform="translate(0.2)" fill="#253a76" fill-rule="evenodd"/>
        <path d="M1439.77,846.68c-13.22,4.85-19.84,12.37-18.84,22.55q-48.9-17-33.56,17.67,4.58,11.72,4.58,11.71l13.32-.11c5.19-.42,34.5.32,34.5.32h0C1439.89,887.12,1439.77,846.68,1439.77,846.68Z" transform="translate(0.2)" fill="#253a76" fill-rule="evenodd"/>
        <path d="M1352.27,871.59c49.93-.23,75.06.08,75.14,0s-7.15-29-21.71-82.93l17.22,23.24-20.69-70.4,13.64,20.17s-4.54-26.24-13.61-78.73l9.92,11.42-10.29-38.89,8.45,5.42s-2.9-15-8.69-45.11q-16.15,66.3-16.16,66.3L1395.63,669q-21,65.37-21,65.38l13.93-17.83q-21.77,57.94-21.76,58l18.91-24.75-28.38,75.41,22.2-36.46c-18.19,54.71-27.25,82.89-27.25,82.89" transform="translate(0.2)" fill="#253a76" fill-rule="evenodd"/>
        <path d="M1121.72,898.61c44.71-.21,67.23.06,67.3,0s-7.25-25.48-21.87-72.91l16.1,20.43s-6.85-20.63-20.57-61.89l12.8,17.73s-4.83-23.07-14.48-69.21l9.22,10s-3.45-11.4-10.36-34.2l7.73,4.77-9.09-39.66Q1145.95,732,1146,732l8.7-11.5L1137.74,778l12-15.67-17.8,50.94,16.22-21.76-23.22,66.3,18.82-32.06c-14.7,48.1-22,72.88-22,72.88" transform="translate(0.2)" fill="#253a76" fill-rule="evenodd"/>
        <path d="M1160.37,898.61c44.72-.25,67.23.07,67.3,0s-7-30.49-21-87.26l15.87,24.46s-6.63-24.69-19.88-74.07l12.6,21.22-13.71-82.83,9.11,12s-3.32-13.64-10-40.92l7.68,5.71s-2.89-15.82-8.65-47.46l-13.2,69.75,8.82-13.76-17.55,68.78,12.13-18.76q-18.37,61-18.38,61,16.47-26,16.46-26l-24,79.34,19.18-38.37c-15.24,57.57-22.81,87.22-22.81,87.22" transform="translate(0.2)" fill="#253a76" fill-rule="evenodd"/>
        <path d="M1098.17,898.61c33-.15,49.59,0,49.63,0s-5.34-18.79-16.12-53.77l11.87,15.07s-5-15.22-15.17-45.65l9.44,13.08-10.68-51,6.8,7.41-7.64-25.22L1132,762s-2.23-9.75-6.71-29.25q-9.24,43-9.25,43l6.42-8.48Q1110,809.65,1110,809.65l8.81-11.56q-13.12,37.57-13.13,37.57l12-16-17.12,48.9,13.88-23.64c-10.84,35.47-16.22,53.74-16.22,53.74" transform="translate(0.2)" fill="#253a76" fill-rule="evenodd"/>
        <path d="M1187.51,898.6c44.72-.26,67.24.09,67.3,0s-6.82-32.93-20.64-94.23l15.76,26.41s-6.52-26.67-19.54-80t12.5,22.92l-13.32-89.46s3,4.33,9,13t-9.79-44.2l7.65,6.17-8.43-51.26q-13.52,75.33-13.52,75.33l8.89-14.86-17.87,74.29,12.22-20.26-18.66,65.85q16.59-28.12,16.58-28.13-24.32,85.7-24.32,85.69l19.35-41.43c-15.5,62.17-23.21,94.19-23.21,94.19" transform="translate(0.2)" fill="#253a76" fill-rule="evenodd"/>
        <path d="M1207.75,898.6c44.72-.28,67.24.09,67.3,0s-6.67-35.59-20.21-101.85l15.64,28.54-19.17-86.46,12.4,24.77s-4.31-32.22-12.91-96.68l9,14s-3.19-15.92-9.58-47.77l7.62,6.66s-2.73-18.47-8.2-55.4l-13.86,81.42,9-16.06-18.21,80.29,12.31-21.9-19,71.17,16.71-30.4-24.72,92.62q19.55-44.79,19.55-44.78c-15.79,67.19-23.65,101.8-23.65,101.8" transform="translate(0.2)" fill="#253a76" fill-rule="evenodd"/>
        <path d="M1229.4,898.6c44.72-.27,67.24.09,67.3,0s-6.74-34.37-20.4-98.37L1292,827.8s-6.45-27.84-19.34-83.51t12.44,23.93s-4.36-31.13-13.1-93.39l9,13.55s-3.22-15.38-9.67-46.13l7.63,6.43s-2.76-17.84-8.3-53.51L1257,673.81l8.93-15.52-18.06,77.55,12.27-21.14q-18.82,68.73-18.82,68.73l16.65-29.36-24.54,89.46q19.45-43.26,19.46-43.25c-15.66,64.9-23.45,98.32-23.45,98.32" transform="translate(0.2)" fill="#253a76" fill-rule="evenodd"/>
        <path d="M1247.14,898.6c44.72-.31,67.24.1,67.3,0s-6.49-38.73-19.69-110.83l15.49,31.06s-6.25-31.36-18.74-94.09l12.27,27-12.42-105.21,8.92,15.26s-3.11-17.32-9.34-52l7.59,7.25-7.92-60.28q-14.28,88.59-14.27,88.6l9-17.48q-18.61,87.36-18.61,87.37l12.42-23.83-19.32,77.44q16.86-33.08,16.87-33.07-25.2,100.77-25.19,100.78l19.77-48.73c-16.13,73.12-24.16,110.78-24.16,110.78" transform="translate(0.2)" fill="#253a76" fill-rule="evenodd"/>
        <path d="M1271.48,898.6c44.72-.38,67.23.12,67.3,0s-6-47-18.35-134.55l15.12,37.71s-5.86-38.07-17.59-114.22l11.94,32.73-11.13-127.73,8.73,18.54-8.7-63.1,7.5,8.79s-2.4-24.39-7.19-73.18l-15.36,107.56q9.26-21.23,9.26-21.22L1293.33,676l12.7-28.92q-20.27,94-20.26,94L1303,700.92q-26.41,122.36-26.42,122.35L1297,764.12c-17,88.76-25.51,134.48-25.51,134.48" transform="translate(0.2)" fill="#253a76" fill-rule="evenodd"/>
        <path d="M1302.17,898.6c44.73-.35,67.24.11,67.3,0s-6.18-44.15-18.81-126.35l15.25,35.41s-6-35.75-18-107.26L1360,731.13,1348.4,611.19l8.8,17.41s-3-19.75-8.93-59.26l7.53,8.26s-2.48-22.91-7.43-68.72q-15,101-15,101l9.18-19.93q-19.3,99.6-19.31,99.6l12.61-27.16q-20,88.29-19.94,88.29L1333.05,713q-26,114.88-26,114.89,20.17-55.54,20.17-55.55c-16.72,83.36-25,126.29-25,126.29" transform="translate(0.2)" fill="#253a76" fill-rule="evenodd"/>
        <path d="M1327.8,898.6c44.72-.28,67.23.09,67.3,0s-6.41-35-19.45-100.27l15.42,28.1s-6.17-28.37-18.52-85.12l12.21,24.39s-4.06-31.73-12.19-95.18t8.89,13.81s-3.07-15.67-9.22-47l7.57,6.55s-2.6-18.18-7.78-54.54q-14.47,80.16-14.48,80.16l9.08-15.82-18.81,79.05,12.47-21.56q-19.5,70.07-19.49,70.06l16.94-29.92q-25.42,91.17-25.42,91.18l19.88-44.09c-16.29,66.15-24.4,100.22-24.4,100.22" transform="translate(0.2)" fill="#253a76" fill-rule="evenodd"/>
        <path d="M1195.19,688.23a11,11,0,0,1-3.22,4.31,17.72,17.72,0,0,0,6.89-3.2l-.88,5.45-.08-.1a24.2,24.2,0,0,1-17.66,8.85,38.39,38.39,0,0,0,10.5.26q-2.06,2.46-7.22,3.34a16.87,16.87,0,0,0,8.55-.21,13.14,13.14,0,0,1-3.86,5.17,21.71,21.71,0,0,0,7.51-3.27l-.92,5.65a26.75,26.75,0,0,1-19.37,9.58,42.44,42.44,0,0,0,11.62.3q-2.28,2.71-8,3.69a18.67,18.67,0,0,0,9.47-.23,14.7,14.7,0,0,1-4.27,5.73,24.07,24.07,0,0,0,8-3.43l-.8,4.93a30.34,30.34,0,0,1-21.61,10.48,48,48,0,0,0,13.16.33q-2.6,3.07-9,4.18a21.06,21.06,0,0,0,10.71-.26,16.55,16.55,0,0,1-4.83,6.48,27.31,27.31,0,0,0,8.75-3.66l-1.12,6.83q-9.62,11.45-25.17,12.53a55.22,55.22,0,0,0,15,.38q-3,3.51-10.34,4.77a23.92,23.92,0,0,0,12.24-.3,18.82,18.82,0,0,1-5.52,7.41,30.88,30.88,0,0,0,10.41-4.46l-1.23,7.47q-10.71,12.72-28,13.91a61.56,61.56,0,0,0,16.75.43c-2.2,2.6-6,4.38-11.52,5.31a26.88,26.88,0,0,0,13.63-.33,20.94,20.94,0,0,1-6.15,8.25,34.69,34.69,0,0,0,11.53-4.93l-.81,4.83q-12.7,14.76-33,16.17a73.1,73.1,0,0,0,20,.5q-3.94,4.68-13.76,6.35a32,32,0,0,0,16.28-.4,25.16,25.16,0,0,1-7.34,9.85,41.44,41.44,0,0,0,13.36-5.61q-.67,4-1.31,7.78-14.16,15.69-36.4,17.24a82.33,82.33,0,0,0,22.55.57q-4.44,5.26-15.51,7.16,8.22,2.16,18.36-.45a28.41,28.41,0,0,1-8.28,11.12,47.38,47.38,0,0,0,14.19-5.77c-2.23,12.94-3.37,19.4-3.37,19.4h4.62L1172,876a42.25,42.25,0,0,0,4.2-4q5.49,3.79,19.27,11.91a49,49,0,0,1-6.47-10.15,168.76,168.76,0,0,0,16.9,4.65,189,189,0,0,1-26.9-19.84,90.94,90.94,0,0,0,15.33,5.66q-12.12-8-18.49-14.72l1.53-10.55a39.66,39.66,0,0,0,3.46-3.29q4.86,3.36,17.07,10.56a43.36,43.36,0,0,1-5.73-9,149.79,149.79,0,0,0,15,4.13,168.37,168.37,0,0,1-23.84-17.59,81.56,81.56,0,0,0,13.59,5q-10.56-7-16.18-12.84l1.17-8.13a31.69,31.69,0,0,0,2.79-2.65q4.06,2.8,14.3,8.83a35.58,35.58,0,0,1-4.8-7.53,124.6,124.6,0,0,0,12.54,3.46,140.87,140.87,0,0,1-20-14.73,68,68,0,0,0,11.38,4.2,80.37,80.37,0,0,1-13.47-10.66l1.52-10.48a28,28,0,0,0,2.87-2.69q3.66,2.52,12.85,7.94a32.42,32.42,0,0,1-4.31-6.77,113.46,113.46,0,0,0,11.26,3.11,127.4,127.4,0,0,1-17.93-13.23,61.42,61.42,0,0,0,10.22,3.77,70,70,0,0,1-12.38-9.87l1.29-8.92a25.27,25.27,0,0,0,3.22-2.91q3.19,2.2,11.24,6.95a28.14,28.14,0,0,1-3.77-5.93,95.58,95.58,0,0,0,9.86,2.72,111.12,111.12,0,0,1-15.7-11.58,54.07,54.07,0,0,0,8.94,3.31,58.48,58.48,0,0,1-11.37-9.24l.79-5.49a23.14,23.14,0,0,0,2.86-2.57q2.82,1.95,9.93,6.13a25.44,25.44,0,0,1-3.34-5.23,86.46,86.46,0,0,0,8.71,2.4,98,98,0,0,1-13.86-10.23,46.83,46.83,0,0,0,7.9,2.92,51.54,51.54,0,0,1-10.06-8.16l.91-6.27a20.18,20.18,0,0,0,2.63-2.36q2.55,1.75,9,5.54a22.57,22.57,0,0,1-3-4.73,77.4,77.4,0,0,0,7.87,2.17,88.86,88.86,0,0,1-12.52-9.23,43.62,43.62,0,0,0,7.13,2.63,46.45,46.45,0,0,1-9.12-7.41l.85-5.84a17.1,17.1,0,0,0,1.82-1.69q2.13,1.47,7.48,4.62a18.56,18.56,0,0,1-2.51-3.94,65.38,65.38,0,0,0,6.55,1.81,74,74,0,0,1-10.43-7.7,36.72,36.72,0,0,0,5.94,2.2,37.18,37.18,0,0,1-7.85-6.48,20.14,20.14,0,0,1-14.72,7.38,31.77,31.77,0,0,0,8.76.22c-1.15,1.37-3.16,2.29-6,2.78a14.07,14.07,0,0,0,7.12-.17" transform="translate(0.2)" fill="#5778bb" fill-rule="evenodd"/>
        <path d="M1350.82,654.48a12.79,12.79,0,0,1-3.73,5,20.64,20.64,0,0,0,8-3.71l-1,6.32L1354,662a28,28,0,0,1-20.49,10.26,44.51,44.51,0,0,0,12.18.31q-2.4,2.85-8.38,3.87a19.54,19.54,0,0,0,9.92-.24,15.4,15.4,0,0,1-4.48,6,25.06,25.06,0,0,0,8.71-3.8l-1.06,6.56q-8.61,10.15-22.49,11.12a49.27,49.27,0,0,0,13.5.34c-1.78,2.11-4.87,3.53-9.28,4.29a21.67,21.67,0,0,0,11-.27,17,17,0,0,1-5,6.65,28,28,0,0,0,9.3-4l-.93,5.71q-9.67,11.1-25.08,12.16a55.76,55.76,0,0,0,15.28.38q-3,3.57-10.51,4.85a24.43,24.43,0,0,0,12.43-.3,19.13,19.13,0,0,1-5.61,7.53,31.57,31.57,0,0,0,10.16-4.26l-1.3,7.93q-11.16,13.29-29.2,14.54a63.44,63.44,0,0,0,17.45.44q-3.43,4.08-12,5.54a28,28,0,0,0,14.21-.34,21.82,21.82,0,0,1-6.41,8.59A36,36,0,0,0,1338,760.7l-1.43,8.66q-12.42,14.76-32.48,16.15a71.36,71.36,0,0,0,19.43.49q-3.82,4.53-13.37,6.16a31.08,31.08,0,0,0,15.82-.38,24.42,24.42,0,0,1-7.14,9.57,40.09,40.09,0,0,0,13.38-5.71l-.93,5.6q-14.74,17.13-38.34,18.76a84.63,84.63,0,0,0,23.2.59q-4.57,5.42-16,7.36,8.44,2.24,18.88-.46a29.05,29.05,0,0,1-8.52,11.43,48.13,48.13,0,0,0,15.51-6.51c-.52,3.12-1,6.12-1.52,9q-16.42,18.23-42.24,20a95.8,95.8,0,0,0,26.18.66q-5.16,6.12-18,8.31,9.54,2.52,21.31-.52a32.8,32.8,0,0,1-9.62,12.9,54.85,54.85,0,0,0,16.47-6.69c-2.58,15-3.9,22.51-3.9,22.51h5.36l3.81-26.28a51.27,51.27,0,0,0,4.87-4.58q6.36,4.39,22.35,13.81-5.62-7.27-7.5-11.78a194.53,194.53,0,0,0,19.61,5.41,221.07,221.07,0,0,1-31.22-23,107.16,107.16,0,0,0,17.79,6.57q-14.07-9.27-21.45-17.08l1.77-12.25a45.1,45.1,0,0,0,4-3.81q5.63,3.9,19.81,12.24a49.61,49.61,0,0,1-6.65-10.44,169.14,169.14,0,0,0,17.37,4.79,196,196,0,0,1-27.66-20.4,95.32,95.32,0,0,0,15.76,5.82q-12.24-8.07-18.78-14.89l1.37-9.44a37.5,37.5,0,0,0,3.23-3.08q4.73,3.25,16.59,10.25a41.58,41.58,0,0,1-5.56-8.74,143.36,143.36,0,0,0,14.55,4A163.36,163.36,0,0,1,1341,778.62a79.74,79.74,0,0,0,13.2,4.88,94.08,94.08,0,0,1-15.63-12.37l1.77-12.16a33.82,33.82,0,0,0,3.33-3.13q4.24,2.94,14.9,9.21a37.82,37.82,0,0,1-5-7.85,126.85,126.85,0,0,0,13.07,3.6,146.66,146.66,0,0,1-20.81-15.35,70.55,70.55,0,0,0,11.86,4.38,81.89,81.89,0,0,1-14.37-11.45L1344.8,728a29,29,0,0,0,3.73-3.38q3.72,2.57,13,8.06a32.47,32.47,0,0,1-4.38-6.87,115.2,115.2,0,0,0,11.44,3.15,128.69,128.69,0,0,1-18.22-13.44,62.05,62.05,0,0,0,10.38,3.84q-8.88-5.85-13.2-10.71l.93-6.37a26.77,26.77,0,0,0,3.31-3q3.27,2.27,11.52,7.12a28.9,28.9,0,0,1-3.87-6.07,100.93,100.93,0,0,0,10.11,2.79,113.9,113.9,0,0,1-16.09-11.87,54.31,54.31,0,0,0,9.17,3.39A59.88,59.88,0,0,1,1351,685.2l1-7.28a23.24,23.24,0,0,0,3-2.74q3,2,10.4,6.43a26.52,26.52,0,0,1-3.49-5.48,91.78,91.78,0,0,0,9.13,2.51,101.5,101.5,0,0,1-14.53-10.72,49.73,49.73,0,0,0,8.28,3.06,53.43,53.43,0,0,1-10.58-8.6l1-6.78a18.56,18.56,0,0,0,2.11-2q2.47,1.71,8.67,5.36a22.38,22.38,0,0,1-2.91-4.57,74,74,0,0,0,7.61,2.1,85.64,85.64,0,0,1-12.11-8.93,42.74,42.74,0,0,0,6.9,2.55,43.36,43.36,0,0,1-9.11-7.51,23.39,23.39,0,0,1-17.08,8.56,37.11,37.11,0,0,0,10.16.25c-1.34,1.59-3.67,2.66-7,3.23a16.33,16.33,0,0,0,8.27-.2" transform="translate(0.2)" fill="#5a8ac2" fill-rule="evenodd"/>
        <path d="M1377.37,693.36a10.7,10.7,0,0,1-3.14,4.2,17.32,17.32,0,0,0,6.72-3.11l-.86,5.31-.08-.1a23.58,23.58,0,0,1-17.22,8.63,37.28,37.28,0,0,0,10.24.26q-2,2.4-7,3.25a16.38,16.38,0,0,0,8.34-.2,12.85,12.85,0,0,1-3.76,5,21.1,21.1,0,0,0,7.32-3.2L1377,719a26.14,26.14,0,0,1-18.9,9.35,41.62,41.62,0,0,0,11.34.29q-2.23,2.64-7.8,3.6a18.19,18.19,0,0,0,9.23-.23,14.17,14.17,0,0,1-4.17,5.59,23.42,23.42,0,0,0,7.82-3.34l-.78,4.81a29.56,29.56,0,0,1-21.09,10.22,47,47,0,0,0,12.85.32q-2.54,3-8.84,4.08a20.64,20.64,0,0,0,10.46-.25,16.17,16.17,0,0,1-4.72,6.32,26.77,26.77,0,0,0,8.54-3.57l-1.09,6.66Q1360.45,774,1345.28,775a53.38,53.38,0,0,0,14.68.38q-2.89,3.42-10.1,4.65a23.45,23.45,0,0,0,12-.29,18.4,18.4,0,0,1-5.39,7.23,30.09,30.09,0,0,0,10.16-4.35l-1.2,7.28q-10.45,12.4-27.32,13.58a59.42,59.42,0,0,0,16.34.41q-3.23,3.83-11.24,5.19a26.16,26.16,0,0,0,13.3-.33,20.53,20.53,0,0,1-6,8.05,33.71,33.71,0,0,0,11.25-4.8l-.79,4.71q-12.39,14.4-32.23,15.77a71.08,71.08,0,0,0,19.5.49q-3.84,4.56-13.41,6.19a31.16,31.16,0,0,0,15.87-.38,24.5,24.5,0,0,1-7.16,9.61,40.54,40.54,0,0,0,13-5.48q-.66,3.93-1.28,7.59-13.82,15.32-35.51,16.82a80,80,0,0,0,22,.55q-4.34,5.15-15.13,7,8,2.11,17.91-.44a27.66,27.66,0,0,1-8.08,10.85,46.06,46.06,0,0,0,13.84-5.63c-2.17,12.63-3.28,18.93-3.28,18.93h4.5l3.21-22.09a42.59,42.59,0,0,0,4.1-3.86q5.34,3.69,18.79,11.62a48.1,48.1,0,0,1-6.31-9.91,163.05,163.05,0,0,0,16.48,4.55,186.79,186.79,0,0,1-26.24-19.36,89.39,89.39,0,0,0,15,5.52q-11.84-7.79-18-14.36l1.49-10.3a37.76,37.76,0,0,0,3.38-3.2q4.74,3.27,16.65,10.29a42.28,42.28,0,0,1-5.59-8.77,147.55,147.55,0,0,0,14.61,4,165.13,165.13,0,0,1-23.26-17.15A79.86,79.86,0,0,0,1379,830.5,92.27,92.27,0,0,1,1363.2,818l1.15-7.94a30,30,0,0,0,2.71-2.59q4,2.74,14,8.63a35.52,35.52,0,0,1-4.68-7.36,120.32,120.32,0,0,0,12.24,3.38,137.51,137.51,0,0,1-19.48-14.37,66.52,66.52,0,0,0,11.1,4.1,77.87,77.87,0,0,1-13.14-10.4l1.48-10.22a27.77,27.77,0,0,0,2.8-2.63q3.57,2.46,12.53,7.74a31.65,31.65,0,0,1-4.2-6.6,106,106,0,0,0,11,3,123.63,123.63,0,0,1-17.5-12.91,59.67,59.67,0,0,0,10,3.69,68.68,68.68,0,0,1-12.08-9.64l1.26-8.7a23.42,23.42,0,0,0,3.14-2.84q3.13,2.16,11,6.78a27.93,27.93,0,0,1-3.68-5.78,95.39,95.39,0,0,0,9.62,2.65A107.35,107.35,0,0,1,1377,744.71a51.81,51.81,0,0,0,8.72,3.22,56.8,56.8,0,0,1-11.1-9l.78-5.35a21.31,21.31,0,0,0,2.78-2.52q2.76,1.91,9.69,6a24.16,24.16,0,0,1-3.25-5.11,81.3,81.3,0,0,0,8.49,2.35,96.06,96.06,0,0,1-13.52-10,47.35,47.35,0,0,0,7.71,2.85,50.16,50.16,0,0,1-9.81-8l.88-6.11a19.29,19.29,0,0,0,2.56-2.31q2.49,1.72,8.75,5.41a21.93,21.93,0,0,1-2.93-4.61,75.83,75.83,0,0,0,7.67,2.11,86.19,86.19,0,0,1-12.22-9,40.79,40.79,0,0,0,7,2.57,44.87,44.87,0,0,1-8.89-7.23l.83-5.7a17.11,17.11,0,0,0,1.77-1.64c1.38,1,3.82,2.45,7.29,4.5a18.25,18.25,0,0,1-2.44-3.84,62,62,0,0,0,6.39,1.76,71.16,71.16,0,0,1-10.18-7.51,34.77,34.77,0,0,0,5.8,2.15,36.41,36.41,0,0,1-7.66-6.32,19.66,19.66,0,0,1-14.36,7.2,31,31,0,0,0,8.54.21c-1.12,1.33-3.08,2.24-5.87,2.71a13.63,13.63,0,0,0,6.95-.16" transform="translate(0.2)" fill="#8fb3da" fill-rule="evenodd"/>
        <path d="M1403.86,731.56a8.81,8.81,0,0,1-2.55,3.43,14.28,14.28,0,0,0,5.47-2.54l-.7,4.32-.07-.08a19.15,19.15,0,0,1-14,7,30.74,30.74,0,0,0,8.34.21c-1.09,1.3-3,2.18-5.73,2.65a13.31,13.31,0,0,0,6.78-.17,10.48,10.48,0,0,1-3.06,4.11,17.29,17.29,0,0,0,6-2.6l-.73,4.48a21.26,21.26,0,0,1-15.38,7.62,33.57,33.57,0,0,0,9.23.23q-1.82,2.16-6.35,2.93a14.81,14.81,0,0,0,7.51-.18,11.5,11.5,0,0,1-3.39,4.55,19,19,0,0,0,6.36-2.72l-.63,3.91a24.09,24.09,0,0,1-17.16,8.32,38,38,0,0,0,10.45.26q-2.06,2.45-7.19,3.32a16.71,16.71,0,0,0,8.51-.21,13,13,0,0,1-3.84,5.15,21.52,21.52,0,0,0,6.95-2.91l-.89,5.43a27.48,27.48,0,0,1-20,9.95,44,44,0,0,0,11.94.3q-2.36,2.79-8.21,3.79a19.21,19.21,0,0,0,9.72-.24,15.09,15.09,0,0,1-4.39,5.89,24.76,24.76,0,0,0,8.27-3.55l-1,5.93a30.61,30.61,0,0,1-22.23,11.05,48.23,48.23,0,0,0,13.3.33q-2.62,3.12-9.15,4.22a21.15,21.15,0,0,0,10.82-.26,16.73,16.73,0,0,1-4.88,6.55,27.45,27.45,0,0,0,9.16-3.91l-.64,3.84q-10.1,11.71-26.24,12.83a57.68,57.68,0,0,0,15.88.4c-2.09,2.48-5.73,4.15-10.92,5a25.45,25.45,0,0,0,12.92-.31,20,20,0,0,1-5.83,7.82,32.88,32.88,0,0,0,10.61-4.46c-.36,2.14-.71,4.19-1,6.18Q1374.61,872,1357,873.17a65.13,65.13,0,0,0,17.91.46q-3.54,4.18-12.32,5.68a28.69,28.69,0,0,0,14.58-.35,22.57,22.57,0,0,1-6.58,8.82,37.28,37.28,0,0,0,11.27-4.58c-1.77,10.28-2.68,15.41-2.68,15.41h3.67l2.61-18a35.17,35.17,0,0,0,3.33-3.14q4.37,3,15.3,9.45a39,39,0,0,1-5.14-8.06,131.84,131.84,0,0,0,13.42,3.7A151.82,151.82,0,0,1,1391,866.83a73,73,0,0,0,12.17,4.49,84.43,84.43,0,0,1-14.68-11.69l1.22-8.38a29.18,29.18,0,0,0,2.74-2.6q3.87,2.65,13.56,8.37a34,34,0,0,1-4.55-7.14,117.94,117.94,0,0,0,11.89,3.28,133.91,133.91,0,0,1-18.93-14,65,65,0,0,0,10.79,4A75.6,75.6,0,0,1,1392.33,833l.93-6.46a24.42,24.42,0,0,0,2.21-2.11q3.24,2.24,11.36,7a28.83,28.83,0,0,1-3.81-6,100.23,100.23,0,0,0,10,2.74,112,112,0,0,1-15.85-11.69,53.68,53.68,0,0,0,9,3.33,63.48,63.48,0,0,1-10.69-8.46l1.21-8.32a22.94,22.94,0,0,0,2.28-2.14q2.9,2,10.2,6.31a25.91,25.91,0,0,1-3.43-5.38,90.83,90.83,0,0,0,9,2.47,100,100,0,0,1-14.24-10.51,48.34,48.34,0,0,0,8.11,3,56.34,56.34,0,0,1-9.83-7.84l1-7.08a19.85,19.85,0,0,0,2.55-2.31q2.55,1.75,8.93,5.51a22.56,22.56,0,0,1-3-4.7,80.05,80.05,0,0,0,7.83,2.16,87.4,87.4,0,0,1-12.46-9.2,42.62,42.62,0,0,0,7.1,2.63,46.38,46.38,0,0,1-9-7.33l.63-4.36a16.89,16.89,0,0,0,2.27-2q2.24,1.56,7.88,4.87a19.77,19.77,0,0,1-2.65-4.15,71.14,71.14,0,0,0,6.92,1.91,78.55,78.55,0,0,1-11-8.12,38.53,38.53,0,0,0,6.27,2.31,41,41,0,0,1-8-6.48l.72-5a15.43,15.43,0,0,0,2.08-1.88q2,1.39,7.12,4.4a18.77,18.77,0,0,1-2.39-3.75,64.25,64.25,0,0,0,6.25,1.72,69.62,69.62,0,0,1-9.94-7.34,33.42,33.42,0,0,0,5.66,2.1,37.13,37.13,0,0,1-7.24-5.89l.68-4.64a13,13,0,0,0,1.44-1.34q1.7,1.17,5.94,3.67a15,15,0,0,1-2-3.13,52,52,0,0,0,5.21,1.44,58,58,0,0,1-8.29-6.12,27.71,27.71,0,0,0,4.72,1.75,29.35,29.35,0,0,1-6.23-5.14,16,16,0,0,1-11.69,5.86,25.11,25.11,0,0,0,7,.17c-.91,1.09-2.5,1.82-4.78,2.21a11.05,11.05,0,0,0,5.66-.14" transform="translate(0.2)" fill="#8bb1da" fill-rule="evenodd"/>
        <path d="M1317.19,519.5a19.77,19.77,0,0,1-5.79,7.77,32,32,0,0,0,12.41-5.76l-1.58,9.81-.15-.18q-12.13,14.58-31.82,16a69.29,69.29,0,0,0,18.92.47q-3.72,4.43-13,6a30.33,30.33,0,0,0,15.4-.37,23.8,23.8,0,0,1-7,9.32,39,39,0,0,0,13.52-5.9l-1.65,10.18q-13.38,15.78-34.91,17.27a76,76,0,0,0,21,.53q-4.12,4.9-14.41,6.65,7.62,2,17.05-.41a26.25,26.25,0,0,1-7.69,10.32,43.18,43.18,0,0,0,14.43-6.16l-1.44,8.88q-15,17.22-38.94,18.87a86.78,86.78,0,0,0,23.72.6q-4.68,5.55-16.32,7.53,8.64,2.28,19.31-.47a29.8,29.8,0,0,1-8.71,11.69,49.18,49.18,0,0,0,15.77-6.61l-2,12.31q-17.34,20.64-45.36,22.58a98.86,98.86,0,0,0,27.1.68q-5.34,6.35-18.64,8.61,9.87,2.6,22.06-.54a34.06,34.06,0,0,1-10,13.36,55.94,55.94,0,0,0,18.76-8L1295,697.9q-19.29,22.92-50.44,25.07a109.85,109.85,0,0,0,30.17.76q-6,7.07-20.76,9.58,11,2.91,24.56-.59a37.88,37.88,0,0,1-11.08,14.86,62.39,62.39,0,0,0,20.78-8.87l-1.45,8.7q-22.9,26.6-59.54,29.13,15.93,2.88,36,.91-7.1,8.41-24.77,11.43,13.11,3.47,29.32-.71a45.23,45.23,0,0,1-13.23,17.75,74.73,74.73,0,0,0,24.09-10.11l-2.37,14q-25.52,28.29-65.6,31.07,18,3.24,40.65,1-8,9.51-28,12.91,14.8,3.9,33.09-.8a51.06,51.06,0,0,1-14.93,20,84.91,84.91,0,0,0,25.57-10.39c-4,23.32-6.06,35-6.06,35h8.32l5.92-40.81a76.9,76.9,0,0,0,7.57-7.12q9.88,6.83,34.71,21.46-8.76-11.31-11.65-18.3a302.74,302.74,0,0,0,30.44,8.4q-23.27-13.89-48.47-35.76a165.94,165.94,0,0,0,27.63,10.21q-21.85-14.4-33.32-26.54l2.76-19a70.77,70.77,0,0,0,6.23-5.91q8.76,6,30.76,19-7.76-10-10.32-16.21a268.76,268.76,0,0,0,27,7.44,303.28,303.28,0,0,1-43-31.69,146.9,146.9,0,0,0,24.48,9q-19-12.52-29.16-23.13l2.12-14.65a58.09,58.09,0,0,0,5-4.79q7.33,5.07,25.77,15.93-6.51-8.4-8.65-13.58a225.53,225.53,0,0,0,22.6,6.23,254.62,254.62,0,0,1-36-26.54,123,123,0,0,0,20.5,7.57q-15.78-10.4-24.27-19.21l2.74-18.88a51.37,51.37,0,0,0,5.17-4.85q6.6,4.55,23.15,14.3-5.84-7.53-7.77-12.19a202.43,202.43,0,0,0,20.3,5.59,227.39,227.39,0,0,1-32.32-23.84,110.24,110.24,0,0,0,18.42,6.81q-14.65-9.66-22.31-17.79l2.33-16.08a44.14,44.14,0,0,0,5.8-5.24q5.76,4,20.26,12.52-5.12-6.6-6.8-10.68a176.44,176.44,0,0,0,17.77,4.9,198.73,198.73,0,0,1-28.29-20.87,96.16,96.16,0,0,0,16.12,6q-13.8-9.09-20.5-16.64l1.43-9.89a39.61,39.61,0,0,0,5.14-4.65q5.1,3.52,17.9,11.06a45.38,45.38,0,0,1-6-9.43,155.15,155.15,0,0,0,15.69,4.33,176.82,176.82,0,0,1-25-18.43,85.48,85.48,0,0,0,14.24,5.26q-12.21-8-18.12-14.71l1.63-11.3a34,34,0,0,0,4.73-4.26q4.61,3.18,16.16,10a40.76,40.76,0,0,1-5.42-8.51,139.3,139.3,0,0,0,14.17,3.9,158.85,158.85,0,0,1-22.56-16.64,76.86,76.86,0,0,0,12.85,4.75q-11.08-7.3-16.43-13.36l1.53-10.53a29.39,29.39,0,0,0,3.28-3q3.84,2.65,13.47,8.33a34.4,34.4,0,0,1-4.52-7.1,117,117,0,0,0,11.81,3.26,133,133,0,0,1-18.81-13.88,64.85,64.85,0,0,0,10.72,4q-9.72-6.4-14.15-11.66-10.11,12.15-26.52,13.29a57.69,57.69,0,0,0,15.77.4q-3.1,3.69-10.85,5a25.36,25.36,0,0,0,12.84-.31" transform="translate(0.2)" fill="#4167b0" fill-rule="evenodd"/>
        <path d="M1280.12,574.62a16.87,16.87,0,0,1-5,6.64,27.22,27.22,0,0,0,10.61-4.92l-1.35,8.39-.13-.15Q1273.93,597,1257.1,598.2a59,59,0,0,0,16.17.41q-3.18,3.78-11.12,5.13a25.83,25.83,0,0,0,13.16-.32,20.27,20.27,0,0,1-5.94,8,33.32,33.32,0,0,0,11.56-5l-1.41,8.7q-11.43,13.49-29.84,14.76a64.72,64.72,0,0,0,17.9.45q-3.52,4.2-12.31,5.69a28.55,28.55,0,0,0,14.57-.36,22.41,22.41,0,0,1-6.57,8.83,37.19,37.19,0,0,0,12.33-5.27l-1.23,7.59q-12.84,14.71-33.28,16.12a74.21,74.21,0,0,0,20.27.52q-4,4.74-13.94,6.43a32.4,32.4,0,0,0,16.5-.4,25.42,25.42,0,0,1-7.45,10,42.12,42.12,0,0,0,13.49-5.65l-1.73,10.52q-14.82,17.64-38.76,19.3a84.37,84.37,0,0,0,23.16.58q-4.56,5.42-15.93,7.35,8.44,2.24,18.85-.45a29.13,29.13,0,0,1-8.5,11.41,48,48,0,0,0,16-6.87l-1.89,11.49q-16.5,19.59-43.11,21.43a94.09,94.09,0,0,0,25.78.65q-5.08,6-17.74,8.19,9.41,2.48,21-.51a32.37,32.37,0,0,1-9.47,12.7A53.17,53.17,0,0,0,1255.4,762l-1.24,7.44q-19.58,22.73-50.88,24.89a112.26,112.26,0,0,0,30.78.78q-6.06,7.18-21.17,9.77,11.2,3,25.06-.61a38.69,38.69,0,0,1-11.31,15.17,63.83,63.83,0,0,0,20.58-8.65c-.69,4.15-1.37,8.13-2,12q-21.79,24.18-56,26.55,15.35,2.78,34.73.88-6.84,8.12-23.89,11,12.66,3.33,28.27-.69a43.62,43.62,0,0,1-12.75,17.12,72.87,72.87,0,0,0,21.85-8.89c-3.42,19.93-5.18,29.88-5.18,29.88h7.11l5.06-34.87a66.28,66.28,0,0,0,6.47-6.09q8.45,5.83,29.66,18.33-7.49-9.66-10-15.63a257.9,257.9,0,0,0,26,7.17A292.45,292.45,0,0,1,1255.12,837a141.55,141.55,0,0,0,23.61,8.72q-18.68-12.3-28.48-22.67l2.36-16.26a58.88,58.88,0,0,0,5.32-5q7.48,5.16,26.3,16.24-6.63-8.55-8.83-13.85a228.61,228.61,0,0,0,23.06,6.36,259.86,259.86,0,0,1-36.71-27.08,126,126,0,0,0,20.92,7.73q-16.25-10.71-24.92-19.77l1.81-12.53a47.28,47.28,0,0,0,4.29-4.09q6.27,4.34,22,13.61-5.55-7.17-7.39-11.6a189.9,189.9,0,0,0,19.31,5.32A216.16,216.16,0,0,1,1267,739.37a105,105,0,0,0,17.53,6.48q-13.48-8.9-20.74-16.42l2.34-16.14a44.22,44.22,0,0,0,4.42-4.14q5.63,3.89,19.78,12.22a49.87,49.87,0,0,1-6.64-10.42,170.78,170.78,0,0,0,17.35,4.78,194.85,194.85,0,0,1-27.62-20.37,94.2,94.2,0,0,0,15.74,5.81q-12.53-8.25-19.07-15.2l2-13.74a38.16,38.16,0,0,0,5-4.48q4.92,3.4,17.31,10.7a43.82,43.82,0,0,1-5.81-9.12,151.3,151.3,0,0,0,15.18,4.18,171.23,171.23,0,0,1-24.17-17.83,82.84,82.84,0,0,0,13.78,5.09q-11.79-7.77-17.52-14.22l1.22-8.45a34.38,34.38,0,0,0,4.4-4q4.35,3,15.29,9.45a39.31,39.31,0,0,1-5.14-8.06,133.75,133.75,0,0,0,13.42,3.7,151.82,151.82,0,0,1-21.36-15.75,73,73,0,0,0,12.17,4.49q-10.42-6.87-15.48-12.57l1.4-9.65a31.56,31.56,0,0,0,4-3.64q3.93,2.71,13.81,8.53a34.87,34.87,0,0,1-4.64-7.27,120.53,120.53,0,0,0,12.11,3.33,136.21,136.21,0,0,1-19.28-14.22,65.53,65.53,0,0,0,11,4.06q-9.48-6.24-14-11.41l1.3-9a25.53,25.53,0,0,0,2.81-2.6q3.27,2.26,11.51,7.11a29.14,29.14,0,0,1-3.87-6.06,101,101,0,0,0,10.1,2.78,113.1,113.1,0,0,1-16.07-11.86,54.36,54.36,0,0,0,9.15,3.39q-8.31-5.48-12.09-10-8.64,10.4-22.66,11.36a49,49,0,0,0,13.47.34q-2.65,3.15-9.27,4.28a21.67,21.67,0,0,0,11-.27" transform="translate(0.2)" fill="#5084c1" fill-rule="evenodd"/>
        <path d="M1327.57,619.16a14.55,14.55,0,0,1-4.27,5.73,23.54,23.54,0,0,0,9.14-4.24l-1.16,7.23-.11-.13q-8.94,10.74-23.45,11.75a50.85,50.85,0,0,0,13.94.35q-2.75,3.27-9.59,4.43a22.33,22.33,0,0,0,11.35-.27,17.5,17.5,0,0,1-5.12,6.87,29,29,0,0,0,10-4.35l-1.22,7.5q-9.85,11.64-25.74,12.74a56.57,56.57,0,0,0,15.45.39q-3,3.6-10.63,4.9a24.68,24.68,0,0,0,12.58-.31,19.32,19.32,0,0,1-5.68,7.61,32,32,0,0,0,10.64-4.54l-1.06,6.54q-11.07,12.69-28.7,13.91a63.63,63.63,0,0,0,17.48.45c-2.3,2.72-6.3,4.57-12,5.55a28,28,0,0,0,14.24-.35,22,22,0,0,1-6.42,8.62,36.44,36.44,0,0,0,11.62-4.87l-1.48,9.07q-12.78,15.21-33.44,16.64a73.33,73.33,0,0,0,20,.51q-3.93,4.67-13.74,6.34a31.91,31.91,0,0,0,16.26-.4,25.11,25.11,0,0,1-7.34,9.85,41.37,41.37,0,0,0,13.84-5.93l-1.64,9.91q-14.22,16.9-37.18,18.49a81.22,81.22,0,0,0,22.23.56q-4.38,5.19-15.29,7.06,8.1,2.13,18.1-.44a28,28,0,0,1-8.17,11,46,46,0,0,0,15.32-6.54l-1.07,6.41q-16.89,19.61-43.89,21.47a96.94,96.94,0,0,0,26.56.67q-5.24,6.21-18.27,8.43,9.68,2.55,21.62-.52a33.29,33.29,0,0,1-9.76,13.08,55,55,0,0,0,17.76-7.46q-.9,5.35-1.75,10.33-18.79,20.87-48.35,22.9a109.14,109.14,0,0,0,30,.76q-5.89,7-20.6,9.51,10.9,2.88,24.38-.59a37.54,37.54,0,0,1-11,14.76,62.59,62.59,0,0,0,18.85-7.66c-3,17.19-4.47,25.77-4.47,25.77h6.13l4.37-30.08a57.45,57.45,0,0,0,5.58-5.25q7.28,5,25.58,15.81-6.45-8.33-8.59-13.48a222.8,222.8,0,0,0,22.45,6.19A252.13,252.13,0,0,1,1306,845.44a121.93,121.93,0,0,0,20.36,7.52q-16.11-10.61-24.56-19.55l2-14a51.06,51.06,0,0,0,4.6-4.36q6.45,4.46,22.67,14-5.71-7.38-7.61-11.95a197,197,0,0,0,19.89,5.49,224.08,224.08,0,0,1-31.67-23.36,108.43,108.43,0,0,0,18,6.66q-14-9.23-21.5-17l1.57-10.81a42.34,42.34,0,0,0,3.7-3.52q5.4,3.74,19,11.73a48.56,48.56,0,0,1-6.38-10,167.49,167.49,0,0,0,16.66,4.59,187.66,187.66,0,0,1-26.52-19.57,90.58,90.58,0,0,0,15.12,5.59q-11.64-7.67-17.89-14.16l2-13.92a38.92,38.92,0,0,0,3.81-3.58q4.86,3.36,17.06,10.55a43.34,43.34,0,0,1-5.73-9,148,148,0,0,0,15,4.12,168,168,0,0,1-23.82-17.57,81.75,81.75,0,0,0,13.58,5q-10.8-7.12-16.45-13.12l1.72-11.85a33.17,33.17,0,0,0,4.28-3.86q4.24,2.94,14.93,9.23a38.08,38.08,0,0,1-5-7.87,131.63,131.63,0,0,0,13.09,3.61,148,148,0,0,1-20.85-15.38,72.38,72.38,0,0,0,11.89,4.39q-10.17-6.71-15.12-12.27l1.06-7.29a28.49,28.49,0,0,0,3.79-3.42q3.75,2.6,13.19,8.15a33.76,33.76,0,0,1-4.43-6.95,116.9,116.9,0,0,0,11.57,3.19,131.35,131.35,0,0,1-18.42-13.59,62.85,62.85,0,0,0,10.5,3.88q-9-5.92-13.36-10.84L1329,646a25.86,25.86,0,0,0,3.49-3.14q3.39,2.34,11.91,7.36a29.81,29.81,0,0,1-4-6.27,103.07,103.07,0,0,0,10.44,2.88,118.8,118.8,0,0,1-16.63-12.27,57.06,57.06,0,0,0,9.48,3.5,61.49,61.49,0,0,1-12.11-9.85l1.13-7.76a22.13,22.13,0,0,0,2.41-2.24q2.84,1.95,9.93,6.14a25.14,25.14,0,0,1-3.33-5.23,85.7,85.7,0,0,0,8.71,2.4,98.57,98.57,0,0,1-13.87-10.23,48.06,48.06,0,0,0,7.9,2.92,49.49,49.49,0,0,1-10.43-8.6,26.74,26.74,0,0,1-19.55,9.8,42.16,42.16,0,0,0,11.63.29c-1.53,1.82-4.19,3-8,3.69a18.56,18.56,0,0,0,9.47-.23" transform="translate(0.2)" fill="#85aeda" fill-rule="evenodd"/>
        <path d="M1231.15,654a12.88,12.88,0,0,1-3.74,5,20.67,20.67,0,0,0,8-3.72l-1,6.33-.1-.11a28.12,28.12,0,0,1-20.53,10.29,44.36,44.36,0,0,0,12.21.3q-2.4,2.86-8.4,3.88a19.61,19.61,0,0,0,9.94-.24,15.36,15.36,0,0,1-4.48,6,25.2,25.2,0,0,0,8.72-3.8l-1.06,6.57q-8.64,10.18-22.53,11.14a49.37,49.37,0,0,0,13.52.35q-2.67,3.15-9.3,4.29a21.75,21.75,0,0,0,11-.27,17.11,17.11,0,0,1-5,6.66,28,28,0,0,0,9.31-4l-.93,5.73q-9.7,11.12-25.13,12.18A55.94,55.94,0,0,0,1217,721q-3,3.57-10.53,4.86a24.44,24.44,0,0,0,12.46-.31,19.32,19.32,0,0,1-5.62,7.55,32,32,0,0,0,10.18-4.27l-1.3,7.94q-11.19,13.32-29.27,14.57a63.72,63.72,0,0,0,17.49.44q-3.45,4.1-12,5.56a28,28,0,0,0,14.23-.35,21.94,21.94,0,0,1-6.42,8.62,36.2,36.2,0,0,0,12.11-5.19l-1.44,8.68q-12.45,14.79-32.55,16.18a71.26,71.26,0,0,0,19.47.49q-3.82,4.54-13.39,6.18a31.19,31.19,0,0,0,15.85-.38,24.58,24.58,0,0,1-7.15,9.59,40.25,40.25,0,0,0,13.41-5.73l-.94,5.62q-14.77,17.16-38.42,18.79a84.59,84.59,0,0,0,23.25.59q-4.59,5.43-16,7.38,8.46,2.24,18.92-.46a29.19,29.19,0,0,1-8.54,11.45,48.11,48.11,0,0,0,15.54-6.53c-.52,3.13-1,6.14-1.52,9.05q-16.47,18.25-42.33,20a95.73,95.73,0,0,0,26.23.67q-5.16,6.12-18,8.32,9.55,2.52,21.35-.52a32.93,32.93,0,0,1-9.63,12.93,55.06,55.06,0,0,0,16.5-6.71c-2.59,15.05-3.92,22.56-3.92,22.56h5.37l3.82-26.33a49.25,49.25,0,0,0,4.89-4.6q6.38,4.41,22.39,13.85-5.64-7.31-7.51-11.81a194.31,194.31,0,0,0,19.64,5.42,221.66,221.66,0,0,1-31.28-23.07,107.33,107.33,0,0,0,17.83,6.58q-14.1-9.28-21.5-17.12l1.78-12.27a43.82,43.82,0,0,0,4-3.82q5.65,3.91,19.85,12.27a49.77,49.77,0,0,1-6.66-10.46,171.85,171.85,0,0,0,17.41,4.8,196.13,196.13,0,0,1-27.72-20.45,94.54,94.54,0,0,0,15.8,5.84q-12.27-8.09-18.82-14.93l1.37-9.45a39.26,39.26,0,0,0,3.24-3.09q4.73,3.27,16.62,10.27a42.56,42.56,0,0,1-5.58-8.76,142.75,142.75,0,0,0,14.58,4,164.5,164.5,0,0,1-23.21-17.12,79.43,79.43,0,0,0,13.23,4.89,93.6,93.6,0,0,1-15.66-12.4l1.77-12.18a33.9,33.9,0,0,0,3.33-3.13q4.26,2.93,14.94,9.23a38.08,38.08,0,0,1-5-7.87,131.63,131.63,0,0,0,13.09,3.61,147.36,147.36,0,0,1-20.85-15.39,70.78,70.78,0,0,0,11.88,4.39,81.73,81.73,0,0,1-14.39-11.48l1.5-10.37a29.21,29.21,0,0,0,3.75-3.38q3.72,2.57,13.07,8.08a33.31,33.31,0,0,1-4.39-6.89,112.73,112.73,0,0,0,11.46,3.16,128.43,128.43,0,0,1-18.25-13.47,62.28,62.28,0,0,0,10.4,3.85q-8.89-5.87-13.23-10.74l.93-6.38a26.15,26.15,0,0,0,3.32-3q3.28,2.28,11.54,7.14a29.19,29.19,0,0,1-3.87-6.09,101.24,101.24,0,0,0,10.12,2.79,113.51,113.51,0,0,1-16.12-11.89,55.76,55.76,0,0,0,9.19,3.4,60.09,60.09,0,0,1-11.69-9.49l1.05-7.29a23.4,23.4,0,0,0,3.06-2.75q3,2.06,10.42,6.44a26.4,26.4,0,0,1-3.5-5.49,91.24,91.24,0,0,0,9.15,2.52A102.66,102.66,0,0,1,1237,667.46a49.87,49.87,0,0,0,8.29,3.06,54.3,54.3,0,0,1-10.6-8.61l1-6.8a19.52,19.52,0,0,0,2.11-2q2.48,1.71,8.69,5.37a21.79,21.79,0,0,1-2.91-4.58,73.56,73.56,0,0,0,7.62,2.1,85.83,85.83,0,0,1-12.14-8.95,42.39,42.39,0,0,0,6.92,2.56,43.29,43.29,0,0,1-9.13-7.53,23.42,23.42,0,0,1-17.11,8.58,36.81,36.81,0,0,0,10.17.25c-1.33,1.59-3.67,2.67-7,3.23a16.19,16.19,0,0,0,8.29-.2" transform="translate(0.2)" fill="#8bb1da" fill-rule="evenodd"/>
        <path d="M1421.68,765.12a6.91,6.91,0,0,1-2,2.74,11.35,11.35,0,0,0,4.37-2l-.56,3.45,0-.06a15.31,15.31,0,0,1-11.2,5.61,23.79,23.79,0,0,0,6.66.17,7.42,7.42,0,0,1-4.58,2.12,10.67,10.67,0,0,0,5.42-.13,8.39,8.39,0,0,1-2.45,3.28,13.6,13.6,0,0,0,4.76-2.08l-.58,3.59a17,17,0,0,1-12.29,6.08,27.37,27.37,0,0,0,7.38.19q-1.45,1.73-5.08,2.34a11.86,11.86,0,0,0,6-.15,9.37,9.37,0,0,1-2.71,3.64,15.3,15.3,0,0,0,5.08-2.18l-.51,3.13a19.23,19.23,0,0,1-13.71,6.65,30.81,30.81,0,0,0,8.35.21c-1.09,1.3-3,2.18-5.74,2.65a13.28,13.28,0,0,0,6.8-.17,10.44,10.44,0,0,1-3.07,4.12,17.25,17.25,0,0,0,5.55-2.33l-.7,4.34a22,22,0,0,1-16,8,34.7,34.7,0,0,0,9.55.24c-1.26,1.49-3.44,2.5-6.57,3a15.27,15.27,0,0,0,7.77-.19,11.94,11.94,0,0,1-3.5,4.7,19.72,19.72,0,0,0,6.6-2.83l-.78,4.74a24.47,24.47,0,0,1-17.76,8.83,38.85,38.85,0,0,0,10.62.26c-1.39,1.66-3.83,2.78-7.3,3.38a17,17,0,0,0,8.64-.21,13.27,13.27,0,0,1-3.9,5.23,22.11,22.11,0,0,0,7.32-3.12l-.51,3.06a29.24,29.24,0,0,1-21,10.26,46.6,46.6,0,0,0,12.69.32c-1.67,2-4.58,3.32-8.73,4a20.25,20.25,0,0,0,10.33-.25,15.9,15.9,0,0,1-4.66,6.25,26.3,26.3,0,0,0,8.48-3.56c-.29,1.71-.57,3.35-.83,4.93q-9,10-23.1,10.94a51.91,51.91,0,0,0,14.31.37q-2.82,3.35-9.84,4.54a22.94,22.94,0,0,0,11.65-.28,18.08,18.08,0,0,1-5.26,7.05,30.24,30.24,0,0,0,9-3.66q-2.13,12.32-2.14,12.31h2.93l2.08-14.37a27.46,27.46,0,0,0,2.67-2.51q3.48,2.41,12.22,7.56a31.29,31.29,0,0,1-4.1-6.44,107.91,107.91,0,0,0,10.72,2.95,120.84,120.84,0,0,1-17.07-12.59,58.19,58.19,0,0,0,9.73,3.59,66.7,66.7,0,0,1-11.73-9.34l1-6.69a24,24,0,0,0,2.19-2.09q3.09,2.13,10.83,6.7a27.33,27.33,0,0,1-3.63-5.71,93.61,93.61,0,0,0,9.5,2.62,107.75,107.75,0,0,1-15.13-11.16,51.63,51.63,0,0,0,8.62,3.18,60.8,60.8,0,0,1-10.27-8.14l.75-5.16a20,20,0,0,0,1.77-1.68q2.58,1.78,9.07,5.6a22.87,22.87,0,0,1-3-4.78,78,78,0,0,0,8,2.2,90.68,90.68,0,0,1-12.67-9.35,43.76,43.76,0,0,0,7.22,2.67,50.81,50.81,0,0,1-8.54-6.77l1-6.65a18.33,18.33,0,0,0,1.83-1.7q2.31,1.61,8.14,5a20.53,20.53,0,0,1-2.73-4.29,72.05,72.05,0,0,0,7.15,2,79.19,79.19,0,0,1-11.38-8.4,37.87,37.87,0,0,0,6.48,2.4,44.54,44.54,0,0,1-7.85-6.26l.82-5.66a15.49,15.49,0,0,0,2-1.85c1.35.94,3.73,2.4,7.13,4.41a18.07,18.07,0,0,1-2.39-3.76,61.5,61.5,0,0,0,6.25,1.72,71.66,71.66,0,0,1-10-7.34,34.66,34.66,0,0,0,5.68,2.09,37.19,37.19,0,0,1-7.22-5.85l.51-3.49a14.64,14.64,0,0,0,1.81-1.63q1.79,1.23,6.3,3.89a15.9,15.9,0,0,1-2.12-3.32,54.22,54.22,0,0,0,5.53,1.52,61.82,61.82,0,0,1-8.8-6.49,30.38,30.38,0,0,0,5,1.86,33.2,33.2,0,0,1-6.38-5.18l.58-4a13.16,13.16,0,0,0,1.67-1.5q1.62,1.13,5.68,3.52a14.49,14.49,0,0,1-1.9-3,46.9,46.9,0,0,0,5,1.37,55.1,55.1,0,0,1-8-5.86,26.63,26.63,0,0,0,4.53,1.68,30,30,0,0,1-5.79-4.71l.54-3.7a11.76,11.76,0,0,0,1.16-1.07c.9.62,2.48,1.59,4.74,2.93a11.88,11.88,0,0,1-1.59-2.5,38.91,38.91,0,0,0,4.16,1.14,46.91,46.91,0,0,1-6.63-4.88,22.25,22.25,0,0,0,3.78,1.39,23.37,23.37,0,0,1-5-4.1,12.82,12.82,0,0,1-9.34,4.68,20.54,20.54,0,0,0,5.55.14,6.24,6.24,0,0,1-3.82,1.76,8.83,8.83,0,0,0,4.52-.11" transform="translate(0.2)" fill="#bbd5ef" fill-rule="evenodd"/>
        <path d="M1274.57,724.09a9.17,9.17,0,0,1-2.67,3.58,14.66,14.66,0,0,0,5.71-2.65l-.72,4.52-.07-.08a20,20,0,0,1-14.65,7.33,31.42,31.42,0,0,0,8.71.22q-1.71,2-6,2.77a14,14,0,0,0,7.09-.17,11,11,0,0,1-3.2,4.29,17.79,17.79,0,0,0,6.22-2.72l-.75,4.69a22.25,22.25,0,0,1-16.08,8,35,35,0,0,0,9.65.25q-1.9,2.25-6.64,3.06a15.47,15.47,0,0,0,7.85-.19,12.1,12.1,0,0,1-3.54,4.75,20,20,0,0,0,6.65-2.84l-.67,4.09a25.14,25.14,0,0,1-17.92,8.69,39.81,39.81,0,0,0,10.92.27c-1.44,1.7-3.94,2.86-7.52,3.47a17.42,17.42,0,0,0,8.89-.22,13.68,13.68,0,0,1-4,5.38,22.63,22.63,0,0,0,7.27-3l-.93,5.67a28.74,28.74,0,0,1-20.88,10.39,45.42,45.42,0,0,0,12.47.31q-2.46,2.92-8.58,4a20,20,0,0,0,10.16-.24,15.79,15.79,0,0,1-4.58,6.15,25.82,25.82,0,0,0,8.63-3.71l-1,6.2q-8.88,10.54-23.22,11.54a50.48,50.48,0,0,0,13.89.35q-2.74,3.24-9.56,4.41a22.18,22.18,0,0,0,11.31-.28,17.46,17.46,0,0,1-5.1,6.85,28.88,28.88,0,0,0,9.56-4.09l-.66,4q-10.54,12.24-27.41,13.41a60.37,60.37,0,0,0,16.58.41q-3.27,3.88-11.4,5.27a26.56,26.56,0,0,0,13.49-.33,20.61,20.61,0,0,1-6.09,8.17,34.34,34.34,0,0,0,11.09-4.65c-.37,2.23-.74,4.37-1.09,6.45q-11.74,13-30.19,14.3a68.55,68.55,0,0,0,18.71.47q-3.69,4.38-12.87,5.94a29.89,29.89,0,0,0,15.23-.37,23.48,23.48,0,0,1-6.87,9.22,39.38,39.38,0,0,0,11.77-4.78q-2.77,16.1-2.79,16.09h3.83l2.72-18.79a35.84,35.84,0,0,0,3.49-3.27q4.55,3.13,16,9.87a40.6,40.6,0,0,1-5.36-8.42,138.09,138.09,0,0,0,14,3.87,158,158,0,0,1-22.32-16.46,76,76,0,0,0,12.72,4.69,87.73,87.73,0,0,1-15.34-12.21l1.27-8.76a30.62,30.62,0,0,0,2.87-2.72q4,2.79,14.16,8.75a35.82,35.82,0,0,1-4.75-7.46,123.57,123.57,0,0,0,12.42,3.43,140.54,140.54,0,0,1-19.78-14.59,68.26,68.26,0,0,0,11.27,4.16,78.42,78.42,0,0,1-13.42-10.65l1-6.74a28.21,28.21,0,0,0,2.31-2.2q3.38,2.32,11.86,7.33a29.94,29.94,0,0,1-4-6.25,102.62,102.62,0,0,0,10.4,2.86,117.13,117.13,0,0,1-16.56-12.21,56.61,56.61,0,0,0,9.44,3.48,66.78,66.78,0,0,1-11.18-8.84l1.26-8.69a25.14,25.14,0,0,0,2.39-2.23q3,2.09,10.65,6.58a27.3,27.3,0,0,1-3.58-5.61,93.2,93.2,0,0,0,9.35,2.57,105.92,105.92,0,0,1-14.88-11,51.16,51.16,0,0,0,8.48,3.13,58.09,58.09,0,0,1-10.27-8.19l1.07-7.4a20.33,20.33,0,0,0,2.67-2.41q2.65,1.83,9.33,5.76a23.74,23.74,0,0,1-3.13-4.91,82,82,0,0,0,8.18,2.25,91.17,91.17,0,0,1-13-9.61,43.91,43.91,0,0,0,7.42,2.75,48.67,48.67,0,0,1-9.44-7.66l.66-4.56a19,19,0,0,0,2.37-2.13q2.34,1.62,8.23,5.09a21.26,21.26,0,0,1-2.76-4.34,73.46,73.46,0,0,0,7.22,2,82,82,0,0,1-11.5-8.49,38.73,38.73,0,0,0,6.55,2.42,42.66,42.66,0,0,1-8.34-6.77l.76-5.2a15.44,15.44,0,0,0,2.17-2q2.11,1.47,7.44,4.6a19,19,0,0,1-2.5-3.92,65.93,65.93,0,0,0,6.53,1.8,73.28,73.28,0,0,1-10.39-7.66,35.09,35.09,0,0,0,5.92,2.18,38.74,38.74,0,0,1-7.56-6.14l.7-4.85a13.32,13.32,0,0,0,1.51-1.4c1.18.81,3.24,2.09,6.2,3.83a15.48,15.48,0,0,1-2.08-3.27,53,53,0,0,0,5.44,1.5,61.32,61.32,0,0,1-8.66-6.38,30.16,30.16,0,0,0,4.93,1.82,31.12,31.12,0,0,1-6.51-5.37,16.71,16.71,0,0,1-12.21,6.12,26.14,26.14,0,0,0,7.26.18c-1,1.13-2.62,1.9-5,2.31a11.59,11.59,0,0,0,5.91-.15" transform="translate(0.2)" fill="#bbd5ef" fill-rule="evenodd"/>
        <path d="M1349.29,705.53a10,10,0,0,1-3,4,16.21,16.21,0,0,0,6.32-2.93l-.8,5-.08-.09a22.21,22.21,0,0,1-16.2,8.12,35.28,35.28,0,0,0,9.63.24q-1.89,2.25-6.62,3.06a15.43,15.43,0,0,0,7.84-.19,12.1,12.1,0,0,1-3.54,4.75,19.9,19.9,0,0,0,6.89-3l-.84,5.19a24.58,24.58,0,0,1-17.79,8.8,39.67,39.67,0,0,0,10.68.27c-1.41,1.66-3.85,2.79-7.34,3.38a16.93,16.93,0,0,0,8.68-.21,13.41,13.41,0,0,1-3.92,5.26,22.26,22.26,0,0,0,7.36-3.14l-.74,4.52a27.77,27.77,0,0,1-19.83,9.61,43.77,43.77,0,0,0,12.08.31q-2.38,2.82-8.31,3.83a19.29,19.29,0,0,0,9.83-.23,15.12,15.12,0,0,1-4.44,6,25.19,25.19,0,0,0,8-3.37l-1,6.27q-8.82,10.51-23.1,11.5a50.24,50.24,0,0,0,13.8.35q-2.72,3.22-9.49,4.38a22,22,0,0,0,11.24-.27,17.42,17.42,0,0,1-5.07,6.8,28.34,28.34,0,0,0,9.55-4.1l-1.13,6.85q-9.83,11.68-25.69,12.78a56.41,56.41,0,0,0,15.37.38q-3,3.6-10.57,4.88a24.52,24.52,0,0,0,12.51-.3,19.38,19.38,0,0,1-5.65,7.57,31.69,31.69,0,0,0,10.58-4.52l-.74,4.43q-11.65,13.54-30.32,14.84a67.15,67.15,0,0,0,18.35.46q-3.61,4.29-12.62,5.83a29.4,29.4,0,0,0,14.93-.37,23.07,23.07,0,0,1-6.73,9,37.94,37.94,0,0,0,12.26-5.15q-.62,3.71-1.2,7.14-13,14.4-33.41,15.82a75.36,75.36,0,0,0,20.7.52q-4.08,4.85-14.24,6.58a33.2,33.2,0,0,0,16.85-.41,26,26,0,0,1-7.6,10.2,43.35,43.35,0,0,0,13-5.3c-2,11.88-3.08,17.81-3.08,17.81H1325l3-20.78a40,40,0,0,0,3.85-3.63q5,3.48,17.68,10.92a44.49,44.49,0,0,1-5.93-9.31,153.89,153.89,0,0,0,15.5,4.27,174.37,174.37,0,0,1-24.68-18.21,84.42,84.42,0,0,0,14.07,5.2q-11.13-7.34-17-13.51l1.4-9.69a36.08,36.08,0,0,0,3.18-3q4.45,3.07,15.66,9.68a40,40,0,0,1-5.26-8.26,133.29,133.29,0,0,0,13.75,3.79,153,153,0,0,1-21.88-16.14,74.85,74.85,0,0,0,12.47,4.61A87.31,87.31,0,0,1,1336,822.76l1.09-7.46a30.83,30.83,0,0,0,2.55-2.44q3.74,2.58,13.12,8.11a33.22,33.22,0,0,1-4.4-6.92,115.41,115.41,0,0,0,11.51,3.18,130.23,130.23,0,0,1-18.33-13.52,63.5,63.5,0,0,0,10.45,3.86,73.06,73.06,0,0,1-12.36-9.79l1.39-9.61a26.72,26.72,0,0,0,2.64-2.47Q1347,788,1355.4,793a29.65,29.65,0,0,1-4-6.21,101.91,101.91,0,0,0,10.34,2.85,116,116,0,0,1-16.46-12.14,56.21,56.21,0,0,0,9.38,3.46,64.82,64.82,0,0,1-11.37-9.06l1.19-8.18a22.68,22.68,0,0,0,3-2.68q2.92,2,10.31,6.38a26,26,0,0,1-3.46-5.44,90.44,90.44,0,0,0,9.05,2.5A101.9,101.9,0,0,1,1349,753.83a50.09,50.09,0,0,0,8.21,3,54.12,54.12,0,0,1-10.44-8.48l.73-5a19.47,19.47,0,0,0,2.62-2.36q2.6,1.78,9.11,5.63a23.42,23.42,0,0,1-3.06-4.8,78.73,78.73,0,0,0,8,2.2,89.55,89.55,0,0,1-12.73-9.39,43.24,43.24,0,0,0,7.25,2.68,47.29,47.29,0,0,1-9.23-7.49l.84-5.75a19,19,0,0,0,2.41-2.17q2.34,1.62,8.23,5.08a20.69,20.69,0,0,1-2.77-4.33,73.46,73.46,0,0,0,7.22,2,80.51,80.51,0,0,1-11.49-8.48,39.27,39.27,0,0,0,6.55,2.42,42.78,42.78,0,0,1-8.37-6.8l.78-5.36a16.31,16.31,0,0,0,1.67-1.55q2,1.35,6.86,4.24a17,17,0,0,1-2.3-3.62,59.44,59.44,0,0,0,6,1.66,67.59,67.59,0,0,1-9.58-7.07,32.06,32.06,0,0,0,5.46,2,33.65,33.65,0,0,1-7.2-5.94,18.48,18.48,0,0,1-13.51,6.77,28.91,28.91,0,0,0,8,.2c-1,1.26-2.9,2.11-5.52,2.55a12.77,12.77,0,0,0,6.53-.15" transform="translate(0.2)" fill="#bbd5ef" fill-rule="evenodd"/>
        <path d="M1166.36,724.09a9.05,9.05,0,0,1-2.66,3.58,14.73,14.73,0,0,0,5.71-2.65l-.73,4.52-.07-.08a20,20,0,0,1-14.64,7.33,31.41,31.41,0,0,0,8.71.22q-1.73,2-6,2.77a14,14,0,0,0,7.09-.17,11,11,0,0,1-3.19,4.29,17.87,17.87,0,0,0,6.22-2.72l-.76,4.69a22.21,22.21,0,0,1-16.07,8,34.93,34.93,0,0,0,9.64.25c-1.26,1.5-3.48,2.52-6.63,3.06a15.47,15.47,0,0,0,7.85-.19,12.1,12.1,0,0,1-3.54,4.75,20,20,0,0,0,6.64-2.84l-.66,4.09a25.16,25.16,0,0,1-17.93,8.69,39.82,39.82,0,0,0,10.92.27c-1.43,1.7-3.94,2.86-7.51,3.47a17.42,17.42,0,0,0,8.89-.22,13.68,13.68,0,0,1-4,5.38,22.48,22.48,0,0,0,7.26-3l-.93,5.67a28.74,28.74,0,0,1-20.88,10.39,45.5,45.5,0,0,0,12.48.31q-2.46,2.92-8.58,4a20,20,0,0,0,10.15-.24,15.7,15.7,0,0,1-4.58,6.15,25.88,25.88,0,0,0,8.64-3.71l-1,6.2q-8.88,10.54-23.22,11.54a50.42,50.42,0,0,0,13.88.35q-2.73,3.24-9.55,4.41a22.18,22.18,0,0,0,11.31-.28,17.58,17.58,0,0,1-5.11,6.85,28.84,28.84,0,0,0,9.57-4.09l-.67,4q-10.55,12.24-27.41,13.41a60.44,60.44,0,0,0,16.59.41q-3.27,3.88-11.41,5.27a26.6,26.6,0,0,0,13.5-.33,20.8,20.8,0,0,1-6.09,8.17,34.43,34.43,0,0,0,11.09-4.65c-.38,2.23-.74,4.37-1.09,6.45q-11.74,13-30.2,14.3a68.56,68.56,0,0,0,18.71.47q-3.67,4.38-12.87,5.94a29.89,29.89,0,0,0,15.23-.37,23.38,23.38,0,0,1-6.87,9.22,39.27,39.27,0,0,0,11.77-4.78c-1.84,10.73-2.79,16.09-2.79,16.09h3.83l2.73-18.79a35.74,35.74,0,0,0,3.48-3.27q4.55,3.13,16,9.87a40.18,40.18,0,0,1-5.36-8.42,137,137,0,0,0,14,3.87,157.92,157.92,0,0,1-22.31-16.46,76,76,0,0,0,12.72,4.69,87.73,87.73,0,0,1-15.34-12.21l1.27-8.76a31.9,31.9,0,0,0,2.87-2.72q4,2.79,14.16,8.75a36,36,0,0,1-4.76-7.46,125.12,125.12,0,0,0,12.42,3.43,140.48,140.48,0,0,1-19.77-14.59,67.58,67.58,0,0,0,11.27,4.16,78.55,78.55,0,0,1-13.43-10.65l1-6.74a28.21,28.21,0,0,0,2.31-2.2q3.38,2.32,11.86,7.33a30.37,30.37,0,0,1-4-6.25,103.38,103.38,0,0,0,10.4,2.86,117.13,117.13,0,0,1-16.56-12.21,57,57,0,0,0,9.44,3.48,66.65,66.65,0,0,1-11.17-8.84l1.26-8.69a25,25,0,0,0,2.38-2.23q3,2.09,10.66,6.58a26.45,26.45,0,0,1-3.58-5.61,92.89,92.89,0,0,0,9.34,2.57,105.29,105.29,0,0,1-14.87-11,51.35,51.35,0,0,0,8.47,3.13,58.46,58.46,0,0,1-10.27-8.19l1.08-7.4a21.69,21.69,0,0,0,2.67-2.41q2.65,1.83,9.32,5.76a23.74,23.74,0,0,1-3.13-4.91,82.78,82.78,0,0,0,8.18,2.25,91.17,91.17,0,0,1-13-9.61,44.24,44.24,0,0,0,7.42,2.75,49,49,0,0,1-9.44-7.66l.66-4.56a17.68,17.68,0,0,0,2.37-2.13q2.34,1.62,8.24,5.09a21,21,0,0,1-2.77-4.34,73,73,0,0,0,7.23,2,81.46,81.46,0,0,1-11.5-8.49,38.4,38.4,0,0,0,6.55,2.42,42.66,42.66,0,0,1-8.34-6.77l.75-5.2a15.51,15.51,0,0,0,2.18-2q2.11,1.47,7.44,4.6a18.57,18.57,0,0,1-2.5-3.92,65.62,65.62,0,0,0,6.52,1.8,73.8,73.8,0,0,1-10.38-7.66,34.44,34.44,0,0,0,5.92,2.18,38.55,38.55,0,0,1-7.57-6.14l.71-4.85a15.27,15.27,0,0,0,1.51-1.4q1.76,1.21,6.2,3.83a15.6,15.6,0,0,1-2.09-3.27,53.72,53.72,0,0,0,5.44,1.5,61.27,61.27,0,0,1-8.65-6.38,29.82,29.82,0,0,0,4.93,1.82,30.86,30.86,0,0,1-6.51-5.37,16.74,16.74,0,0,1-12.21,6.12,26.14,26.14,0,0,0,7.26.18c-1,1.13-2.62,1.9-5,2.31a11.59,11.59,0,0,0,5.91-.15" transform="translate(0.2)" fill="#bbd5ef" fill-rule="evenodd"/>
        <path d="M1069,898.61c22.48-.12,33.8,0,33.84,0s-3.65-15.43-11-44.17l8.1,12.38-10.35-37.5,6.44,10.75s-2.43-14-7.28-41.93c0,0,1.55,2,4.64,6.08l-5.21-20.72s1.29,1,3.89,2.89t-4.58-24l-6.3,35.31,4.37-7q-8.5,34.81-8.5,34.82,6-9.49,6-9.49-9,30.86-8.95,30.86l8.15-13.18-11.67,40.16q9.45-19.43,9.46-19.42c-7.39,29.14-11.06,44.15-11.06,44.15" transform="translate(0.2)" fill="#253a76" fill-rule="evenodd"/>
        <path d="M1076,744.39a8,8,0,0,1-2.36,3.16,12.91,12.91,0,0,0,5-2.34l-.64,4-.06-.07a17.77,17.77,0,0,1-13,6.49,28.52,28.52,0,0,0,7.7.19q-1.52,1.8-5.3,2.44a12.21,12.21,0,0,0,6.27-.15,9.63,9.63,0,0,1-2.83,3.79,15.48,15.48,0,0,0,5.5-2.4l-.67,4.14a19.59,19.59,0,0,1-14.2,7,30.83,30.83,0,0,0,8.52.22q-1.68,2-5.86,2.7a13.6,13.6,0,0,0,6.94-.17,10.7,10.7,0,0,1-3.13,4.2,17.33,17.33,0,0,0,5.87-2.51l-.59,3.62a22.14,22.14,0,0,1-15.84,7.67,35,35,0,0,0,9.65.25q-1.9,2.25-6.64,3.06a15.4,15.4,0,0,0,7.86-.19,12.15,12.15,0,0,1-3.55,4.76,20.09,20.09,0,0,0,6.42-2.69l-.82,5a25.38,25.38,0,0,1-18.45,9.19,40.12,40.12,0,0,0,11,.28c-1.44,1.72-4,2.88-7.58,3.5a17.77,17.77,0,0,0,9-.22,14,14,0,0,1-4,5.43,22.69,22.69,0,0,0,7.63-3.27L1067,817a28.24,28.24,0,0,1-20.52,10.2,44.36,44.36,0,0,0,12.27.31c-1.61,1.92-4.43,3.21-8.44,3.9a19.7,19.7,0,0,0,10-.24,15.43,15.43,0,0,1-4.51,6,25,25,0,0,0,8.45-3.61l-.59,3.54q-9.32,10.81-24.22,11.85a53.26,53.26,0,0,0,14.66.37q-2.89,3.43-10.08,4.65a23.37,23.37,0,0,0,11.93-.29,18.3,18.3,0,0,1-5.39,7.22,30.21,30.21,0,0,0,9.8-4.11q-.49,3-1,5.7Q1049,874,1032.72,875.13a60.37,60.37,0,0,0,16.53.42q-3.26,3.86-11.37,5.24a26.44,26.44,0,0,0,13.46-.32,20.85,20.85,0,0,1-6.08,8.15,34.81,34.81,0,0,0,10.41-4.23c-1.63,9.48-2.47,14.22-2.47,14.22h3.38L1059,882a31.19,31.19,0,0,0,3.08-2.9q4,2.77,14.12,8.73a36.36,36.36,0,0,1-4.74-7.44,125,125,0,0,0,12.39,3.41,139,139,0,0,1-19.72-14.54,67.55,67.55,0,0,0,11.24,4.15,78,78,0,0,1-13.56-10.79l1.12-7.74a27.45,27.45,0,0,0,2.54-2.41q3.55,2.46,12.51,7.74a32.08,32.08,0,0,1-4.2-6.6,106.4,106.4,0,0,0,11,3,124.06,124.06,0,0,1-17.48-12.89,59.93,59.93,0,0,0,10,3.68,70.33,70.33,0,0,1-11.86-9.41l.86-6a25.14,25.14,0,0,0,2-2q3,2.05,10.48,6.48a26.14,26.14,0,0,1-3.52-5.53,89.06,89.06,0,0,0,9.19,2.54,102.77,102.77,0,0,1-14.63-10.8,48.93,48.93,0,0,0,8.34,3.08,59.26,59.26,0,0,1-9.88-7.81l1.12-7.68a20.61,20.61,0,0,0,2.1-2q2.68,1.86,9.42,5.82a23.11,23.11,0,0,1-3.16-5,82.22,82.22,0,0,0,8.25,2.28,92.67,92.67,0,0,1-13.14-9.7,44.78,44.78,0,0,0,7.49,2.77,51.54,51.54,0,0,1-9.08-7.24l1-6.54a17.6,17.6,0,0,0,2.36-2.13q2.36,1.62,8.24,5.09a20.57,20.57,0,0,1-2.76-4.34,70.75,70.75,0,0,0,7.22,2,80.47,80.47,0,0,1-11.5-8.49,38.67,38.67,0,0,0,6.55,2.43,42.61,42.61,0,0,1-8.33-6.77l.58-4a17,17,0,0,0,2.09-1.89q2.07,1.42,7.28,4.49a17.83,17.83,0,0,1-2.44-3.83,64.37,64.37,0,0,0,6.38,1.76,71.71,71.71,0,0,1-10.16-7.5,34.69,34.69,0,0,0,5.79,2.14,37.58,37.58,0,0,1-7.37-6l.66-4.6a14.3,14.3,0,0,0,1.93-1.73c1.24.86,3.43,2.22,6.57,4.06a16.79,16.79,0,0,1-2.21-3.46q2.13.73,5.77,1.59a64.64,64.64,0,0,1-9.18-6.77,31.2,31.2,0,0,0,5.23,1.93,33.91,33.91,0,0,1-6.68-5.43l.62-4.29a11.89,11.89,0,0,0,1.33-1.23q1.56,1.07,5.48,3.38a14,14,0,0,1-1.84-2.89,45.86,45.86,0,0,0,4.81,1.33,54,54,0,0,1-7.65-5.64,26.52,26.52,0,0,0,4.36,1.61,27.1,27.1,0,0,1-5.76-4.75,14.76,14.76,0,0,1-10.79,5.41,23.25,23.25,0,0,0,6.42.16,7.21,7.21,0,0,1-4.42,2,10.27,10.27,0,0,0,5.23-.13" transform="translate(0.2)" fill="#5778bb" fill-rule="evenodd"/>
        <path d="M1031.87,803.72a4.94,4.94,0,0,1-1.45,1.94,7.84,7.84,0,0,0,3.1-1.44l-.39,2.46,0,0a10.89,10.89,0,0,1-8,4,17.41,17.41,0,0,0,4.73.12,5.38,5.38,0,0,1-3.25,1.5,7.56,7.56,0,0,0,3.85-.1,5.9,5.9,0,0,1-1.74,2.34,9.72,9.72,0,0,0,3.39-1.48l-.42,2.55a12.07,12.07,0,0,1-8.74,4.32,19.17,19.17,0,0,0,5.25.14,5.9,5.9,0,0,1-3.61,1.66,8.41,8.41,0,0,0,4.27-.1,6.55,6.55,0,0,1-1.93,2.58,10.91,10.91,0,0,0,3.62-1.54l-.37,2.22a13.62,13.62,0,0,1-9.74,4.72,21.32,21.32,0,0,0,5.93.15,6.59,6.59,0,0,1-4.08,1.89,9.49,9.49,0,0,0,4.83-.12,7.36,7.36,0,0,1-2.18,2.93,12.28,12.28,0,0,0,4-1.66l-.5,3.08a15.59,15.59,0,0,1-11.35,5.65,24.6,24.6,0,0,0,6.78.18,7.65,7.65,0,0,1-4.67,2.15,10.84,10.84,0,0,0,5.52-.14,8.48,8.48,0,0,1-2.49,3.35,14.12,14.12,0,0,0,4.7-2l-.56,3.37a17.35,17.35,0,0,1-12.62,6.28,27.81,27.81,0,0,0,7.55.19c-1,1.18-2.72,2-5.2,2.4a12.18,12.18,0,0,0,6.15-.15,9.58,9.58,0,0,1-2.77,3.72,15.7,15.7,0,0,0,5.2-2.22l-.36,2.17a20.75,20.75,0,0,1-14.91,7.29,32.86,32.86,0,0,0,9,.23q-1.77,2.12-6.2,2.86a14.48,14.48,0,0,0,7.34-.17,11.38,11.38,0,0,1-3.31,4.44,18.58,18.58,0,0,0,6-2.53c-.2,1.21-.4,2.38-.59,3.51a23.39,23.39,0,0,1-16.42,7.77,37.23,37.23,0,0,0,10.18.26q-2,2.37-7,3.23a16.37,16.37,0,0,0,8.28-.2,12.82,12.82,0,0,1-3.73,5,21.56,21.56,0,0,0,6.4-2.6q-1.51,8.75-1.52,8.75h2.08l1.48-10.22a18.72,18.72,0,0,0,1.9-1.78q2.48,1.71,8.68,5.37a21.54,21.54,0,0,1-2.91-4.58,73.56,73.56,0,0,0,7.62,2.1,84.44,84.44,0,0,1-12.13-9,41,41,0,0,0,6.91,2.56,48.48,48.48,0,0,1-8.34-6.64l.69-4.76a16.76,16.76,0,0,0,1.56-1.48q2.19,1.51,7.7,4.76a20,20,0,0,1-2.58-4.06,66.59,66.59,0,0,0,6.75,1.86,76.45,76.45,0,0,1-10.75-7.93,37.15,37.15,0,0,0,6.13,2.26,42.47,42.47,0,0,1-7.3-5.79l.53-3.67a14.06,14.06,0,0,0,1.25-1.19q1.85,1.26,6.45,4a16.38,16.38,0,0,1-2.16-3.4,54.15,54.15,0,0,0,5.65,1.56,63.69,63.69,0,0,1-9-6.64,30.3,30.3,0,0,0,5.13,1.9,36.28,36.28,0,0,1-6.07-4.81l.68-4.73a12.34,12.34,0,0,0,1.3-1.21q1.65,1.14,5.79,3.58a14.93,14.93,0,0,1-1.94-3.05,52.27,52.27,0,0,0,5.08,1.4,57.72,57.72,0,0,1-8.09-6,27.32,27.32,0,0,0,4.61,1.7,31.62,31.62,0,0,1-5.59-4.45l.59-4A10.61,10.61,0,0,0,1031,831c1,.67,2.65,1.71,5.07,3.14a12.81,12.81,0,0,1-1.7-2.67,43.94,43.94,0,0,0,4.44,1.22,50.61,50.61,0,0,1-7.08-5.22,24.35,24.35,0,0,0,4,1.49,26.56,26.56,0,0,1-5.13-4.16l.36-2.48a10.08,10.08,0,0,0,1.28-1.16c.85.58,2.35,1.51,4.48,2.76a11.17,11.17,0,0,1-1.5-2.36,39.3,39.3,0,0,0,3.93,1.09,43.82,43.82,0,0,1-6.26-4.62,21.57,21.57,0,0,0,3.57,1.32,23.33,23.33,0,0,1-4.54-3.68l.41-2.83a9.12,9.12,0,0,0,1.18-1.06q1.15.79,4,2.5a10.36,10.36,0,0,1-1.36-2.14,32.1,32.1,0,0,0,3.55,1,40,40,0,0,1-5.65-4.16,19.94,19.94,0,0,0,3.22,1.19,20.88,20.88,0,0,1-4.11-3.35l.38-2.63a8.39,8.39,0,0,0,.82-.76c.64.44,1.76,1.13,3.37,2.08a8.25,8.25,0,0,1-1.13-1.78,27.51,27.51,0,0,0,3,.82,33.59,33.59,0,0,1-4.71-3.47,16.68,16.68,0,0,0,2.68,1,16.77,16.77,0,0,1-3.54-2.92,9,9,0,0,1-6.64,3.32,13.82,13.82,0,0,0,3.95.1,4.39,4.39,0,0,1-2.72,1.26,6.44,6.44,0,0,0,3.22-.08" transform="translate(0.2)" fill="#253a76" fill-rule="evenodd"/>
        <path d="M975.07,830.75a3.57,3.57,0,0,1-1,1.39,5.72,5.72,0,0,0,2.23-1l-.29,1.76,0,0a7.81,7.81,0,0,1-5.7,2.86,12.15,12.15,0,0,0,3.39.08,3.8,3.8,0,0,1-2.33,1.08,5.38,5.38,0,0,0,2.75-.07,4.21,4.21,0,0,1-1.24,1.67,6.89,6.89,0,0,0,2.42-1.06l-.29,1.83a8.66,8.66,0,0,1-6.25,3.09,13.53,13.53,0,0,0,3.75.09,4.16,4.16,0,0,1-2.58,1.19,6,6,0,0,0,3-.07,4.79,4.79,0,0,1-1.38,1.85,7.84,7.84,0,0,0,2.59-1.11l-.26,1.59a9.78,9.78,0,0,1-7,3.38,15.46,15.46,0,0,0,4.24.11,4.76,4.76,0,0,1-2.92,1.35,6.82,6.82,0,0,0,3.46-.09,5.36,5.36,0,0,1-1.56,2.1,8.92,8.92,0,0,0,2.82-1.19l-.36,2.21a11.16,11.16,0,0,1-8.12,4,17.9,17.9,0,0,0,4.85.12,5.36,5.36,0,0,1-3.33,1.54,7.73,7.73,0,0,0,3.95-.1,6.18,6.18,0,0,1-1.78,2.39,9.81,9.81,0,0,0,3.35-1.44l-.39,2.41a12.45,12.45,0,0,1-9,4.49,19.85,19.85,0,0,0,5.4.14,6.06,6.06,0,0,1-3.72,1.71,8.59,8.59,0,0,0,4.4-.11,6.8,6.8,0,0,1-2,2.67,11.17,11.17,0,0,0,3.71-1.59l-.26,1.55A14.79,14.79,0,0,1,959,876.76a23.47,23.47,0,0,0,6.45.16A7.22,7.22,0,0,1,961,879a10.34,10.34,0,0,0,5.25-.13,8.12,8.12,0,0,1-2.37,3.18,13.33,13.33,0,0,0,4.31-1.81c-.14.86-.28,1.7-.42,2.51A16.78,16.78,0,0,1,956,888.28a27,27,0,0,0,7.27.18q-1.42,1.69-5,2.31a11.62,11.62,0,0,0,5.92-.14,9.05,9.05,0,0,1-2.67,3.58,15.41,15.41,0,0,0,4.58-1.86c-.72,4.17-1.09,6.26-1.09,6.26h1.49l1.06-7.31a12.45,12.45,0,0,0,1.35-1.27q1.77,1.22,6.22,3.84a15.62,15.62,0,0,1-2.09-3.28,56.41,56.41,0,0,0,5.45,1.51,61,61,0,0,1-8.67-6.4,29.08,29.08,0,0,0,4.94,1.82,33.68,33.68,0,0,1-6-4.75l.49-3.4a13.93,13.93,0,0,0,1.12-1.06c1,.72,2.88,1.86,5.5,3.4a14.2,14.2,0,0,1-1.85-2.9,47.17,47.17,0,0,0,4.83,1.33,53.57,53.57,0,0,1-7.69-5.67,26,26,0,0,0,4.39,1.62,30.16,30.16,0,0,1-5.22-4.14l.38-2.62a10.3,10.3,0,0,0,.89-.86q1.32.91,4.62,2.85a11.59,11.59,0,0,1-1.55-2.43,40.79,40.79,0,0,0,4,1.12,46.72,46.72,0,0,1-6.44-4.75,22.49,22.49,0,0,0,3.67,1.35,25.88,25.88,0,0,1-4.34-3.44l.49-3.38a9.38,9.38,0,0,0,.93-.86q1.17.81,4.14,2.56a10.24,10.24,0,0,1-1.39-2.19,33,33,0,0,0,3.63,1,40.29,40.29,0,0,1-5.78-4.26,20.07,20.07,0,0,0,3.29,1.22,22.9,22.9,0,0,1-4-3.19l.42-2.88a8.33,8.33,0,0,0,1-.94c.68.48,1.89,1.23,3.62,2.25a9.84,9.84,0,0,1-1.22-1.91,32.68,32.68,0,0,0,3.18.87,35.79,35.79,0,0,1-5.06-3.73,17.34,17.34,0,0,0,2.89,1.06,18.61,18.61,0,0,1-3.67-3l.25-1.78a6,6,0,0,0,.92-.83q.92.63,3.21,2a8,8,0,0,1-1.08-1.69,27.35,27.35,0,0,0,2.81.78,31.06,31.06,0,0,1-4.47-3.3,14.89,14.89,0,0,0,2.55.94,17,17,0,0,1-3.25-2.63l.3-2a6.09,6.09,0,0,0,.84-.77c.55.38,1.52,1,2.9,1.79a7.69,7.69,0,0,1-1-1.52,25.92,25.92,0,0,0,2.54.7,29.06,29.06,0,0,1-4-3,14.7,14.7,0,0,0,2.3.85A15.14,15.14,0,0,1,976,833l.28-1.89a4.89,4.89,0,0,0,.58-.54c.46.31,1.26.81,2.41,1.49a6.3,6.3,0,0,1-.8-1.27,21.88,21.88,0,0,0,2.11.58,23.83,23.83,0,0,1-3.37-2.48,11.74,11.74,0,0,0,1.92.71,12.08,12.08,0,0,1-2.53-2.09,6.52,6.52,0,0,1-4.75,2.38,10.46,10.46,0,0,0,2.83.07,3.21,3.21,0,0,1-2,.9,4.52,4.52,0,0,0,2.3-.06" transform="translate(0.2)" fill="#253a76" fill-rule="evenodd"/>
        <path d="M983.71,898.61c12.31-.05,18.51,0,18.52,0s-2-7.05-6-20.17l4.43,5.65L995,867l3.53,4.91-4-19.15s.85.92,2.54,2.78L994.21,846l2.13,1.32s-.84-3.65-2.51-11l-3.45,16.13,2.39-3.18-4.65,15.9,3.29-4.34-4.9,14.1c3-4,4.46-6,4.46-6l-6.39,18.35,5.18-8.87c-4,13.31-6,20.16-6,20.16" transform="translate(0.2)" fill="#253a76" fill-rule="evenodd"/>
        <path d="M955.89,850.08a2.49,2.49,0,0,1-.74,1,4,4,0,0,0,1.59-.73l-.2,1.25,0,0a5.56,5.56,0,0,1-4.08,2,8.78,8.78,0,0,0,2.43.06,2.7,2.7,0,0,1-1.67.77,3.79,3.79,0,0,0,2-.05,3.1,3.1,0,0,1-.89,1.2,5.12,5.12,0,0,0,1.73-.76l-.21,1.31a6.2,6.2,0,0,1-4.47,2.21,9.82,9.82,0,0,0,2.68.06,3,3,0,0,1-1.84.86,4.28,4.28,0,0,0,2.18-.06,3.23,3.23,0,0,1-1,1.32,5.4,5.4,0,0,0,1.85-.79l-.19,1.14a7,7,0,0,1-5,2.42,11.13,11.13,0,0,0,3,.07,3.36,3.36,0,0,1-2.09,1,5,5,0,0,0,2.48-.06,3.84,3.84,0,0,1-1.12,1.49,6.29,6.29,0,0,0,2-.84l-.26,1.57a8,8,0,0,1-5.8,2.89,12.24,12.24,0,0,0,3.46.09,3.85,3.85,0,0,1-2.38,1.1,5.54,5.54,0,0,0,2.82-.07,4.27,4.27,0,0,1-1.27,1.71,7,7,0,0,0,2.4-1l-.28,1.73a8.94,8.94,0,0,1-6.46,3.21,14.34,14.34,0,0,0,3.86.09,4.36,4.36,0,0,1-2.66,1.23,6.17,6.17,0,0,0,3.15-.08,4.92,4.92,0,0,1-1.42,1.91,8.17,8.17,0,0,0,2.66-1.14l-.19,1.11a10.57,10.57,0,0,1-7.62,3.73,16.56,16.56,0,0,0,4.61.12,5.15,5.15,0,0,1-3.17,1.46,7.28,7.28,0,0,0,3.75-.09,5.72,5.72,0,0,1-1.69,2.27,9.56,9.56,0,0,0,3.08-1.29c-.1.62-.2,1.22-.3,1.79a12,12,0,0,1-8.39,4,18.81,18.81,0,0,0,5.2.13,5.83,5.83,0,0,1-3.58,1.65,8.26,8.26,0,0,0,4.23-.1,6.44,6.44,0,0,1-1.91,2.56,10.76,10.76,0,0,0,3.28-1.33l-.78,4.48h1.07l.75-5.23a9.25,9.25,0,0,0,1-.91c.85.59,2.33,1.5,4.45,2.75a11.67,11.67,0,0,1-1.5-2.34c1,.33,2.26.69,3.9,1.07a43.59,43.59,0,0,1-6.2-4.58,20.52,20.52,0,0,0,3.53,1.31,25,25,0,0,1-4.26-3.39l.35-2.44a8.18,8.18,0,0,0,.8-.76q1.13.78,3.94,2.44a9.88,9.88,0,0,1-1.33-2.08,31.89,31.89,0,0,0,3.46.95,39.42,39.42,0,0,1-5.5-4,19.16,19.16,0,0,0,3.13,1.16,22,22,0,0,1-3.73-3l.27-1.87a7.41,7.41,0,0,0,.64-.61c.63.43,1.73,1.11,3.3,2a8.2,8.2,0,0,1-1.1-1.73,27.23,27.23,0,0,0,2.89.79,32.1,32.1,0,0,1-4.61-3.39,16.42,16.42,0,0,0,2.63,1,18.9,18.9,0,0,1-3.11-2.46l.35-2.42a5.56,5.56,0,0,0,.66-.62c.57.39,1.55,1,3,1.83a7.56,7.56,0,0,1-1-1.56c.64.22,1.51.46,2.6.72a29.56,29.56,0,0,1-4.14-3.06,15.42,15.42,0,0,0,2.36.88,16.56,16.56,0,0,1-2.85-2.28l.29-2.06a5.28,5.28,0,0,0,.75-.67c.49.34,1.35.87,2.59,1.6a6.12,6.12,0,0,1-.87-1.37,20.78,20.78,0,0,0,2.27.63,25.67,25.67,0,0,1-3.62-2.67,12,12,0,0,0,2.07.76,13,13,0,0,1-2.63-2.13l.18-1.26a4.7,4.7,0,0,0,.66-.6c.44.3,1.2.78,2.29,1.42a6.17,6.17,0,0,1-.77-1.21,20.27,20.27,0,0,0,2,.55,22.31,22.31,0,0,1-3.19-2.35,10.89,10.89,0,0,0,1.82.67,11.91,11.91,0,0,1-2.32-1.88l.21-1.45a4.37,4.37,0,0,0,.6-.54c.4.27,1.09.69,2.07,1.27a4.86,4.86,0,0,1-.69-1.09,15.33,15.33,0,0,0,1.81.5,20.43,20.43,0,0,1-2.89-2.13,9.83,9.83,0,0,0,1.65.61,10.15,10.15,0,0,1-2.1-1.71l.19-1.35a2.56,2.56,0,0,0,.42-.39c.33.23.9.59,1.73,1.07a4.07,4.07,0,0,1-.58-.91,15.19,15.19,0,0,0,1.51.42,17,17,0,0,1-2.41-1.78,8.69,8.69,0,0,0,1.37.51,8.66,8.66,0,0,1-1.81-1.49,4.67,4.67,0,0,1-3.39,1.7,7.41,7.41,0,0,0,2,.05,2.29,2.29,0,0,1-1.39.64,3.17,3.17,0,0,0,1.64,0" transform="translate(0.2)" fill="#253a76" fill-rule="evenodd"/>
      </g>
      <g id="ps-bird">
        <polygon points="745.05 349.25 762.4 355.74 776 343.86 761.38 351.29 745.05 349.25" fill="#1a1a1a" fill-rule="evenodd"/>
        <polygon points="825.87 297.78 839.49 302.87 850.17 293.54 838.7 299.37 825.87 297.78" fill="#1a1a1a" fill-rule="evenodd"/>
        <polygon points="1156.2 321.42 1169.83 326.52 1180.51 317.19 1169.03 323.02 1156.2 321.42" fill="#1a1a1a" fill-rule="evenodd"/>
      </g>
    </g>
  </svg>